<svg id="svg8" xmlns="http://www.w3.org/2000/svg" viewBox="0 0 420.1 35.7"><defs><style>.cls-1{fill:#00550e;}</style></defs><title>brand</title><g id="layer1"><g id="g826"><path id="text848" class="cls-1" d="M111.63,20.29c-.3,0-.5.2-.7.7l-12.2,27.1-.7,1.6a12,12,0,0,1-1.3,2.1,2.84,2.84,0,0,1-1.3,1.1l-.9.3c-.3.1-.4.2-.4.5s.2.4.6.4A10.3,10.3,0,0,0,96,54h3.7l2.3.1h.8c.5,0,.7-.1.7-.4s-.3-.5-.7-.6a4.14,4.14,0,0,1-2.2-.9,1.94,1.94,0,0,1-.5-1.6,12.41,12.41,0,0,1,1-3.6l1.5-3.5a7.6,7.6,0,0,1,1.1-1.9,4.77,4.77,0,0,1,2.2-.3h8.6a4.23,4.23,0,0,1,1.6.2,3,3,0,0,1,.8,1.5l1.2,3.1a18,18,0,0,1,1.5,5c0,.9-.4,1.5-1.2,1.6l-.7.2c-.4.1-.6.2-.6.5s.2.5.6.5a2,2,0,0,0,.7-.1,36.93,36.93,0,0,1,4.1-.1c2.1,0,3.6,0,4.4.1h.9c.4,0,.6-.1.7-.4s-.2-.5-.7-.6a6.24,6.24,0,0,1-3-1.1,13.39,13.39,0,0,1-1.9-3.6l-.5-1.3-10.2-26.1a.68.68,0,0,0-.6-.4Zm213.8,0c-.3,0-.5.2-.7.7l-12.2,27.1-.7,1.6a12,12,0,0,1-1.3,2.1,2.84,2.84,0,0,1-1.3,1.1l-.9.3c-.3.1-.4.2-.4.5s.2.4.6.4a10.3,10.3,0,0,0,1.3-.1h3.7l2.3.1h.8c.5,0,.7-.1.7-.4s-.3-.5-.7-.6a4.14,4.14,0,0,1-2.2-.9,1.94,1.94,0,0,1-.5-1.6,9.83,9.83,0,0,1,1-3.6l1.5-3.5a7.6,7.6,0,0,1,1.1-1.9,4.77,4.77,0,0,1,2.2-.3h8.6a4.23,4.23,0,0,1,1.6.2,3,3,0,0,1,.8,1.5l1.2,3.1a16.57,16.57,0,0,1,1.4,5c0,.9-.4,1.5-1.2,1.6l-.7.2c-.4.1-.6.2-.6.5s.2.5.6.5a2,2,0,0,0,.7-.1,36.93,36.93,0,0,1,4.1-.1c2.1,0,3.6,0,4.4.1h.9c.4,0,.6-.1.7-.4s-.2-.5-.7-.6a6.24,6.24,0,0,1-3-1.1,13.39,13.39,0,0,1-1.9-3.6l-.5-1.3-10.2-26.1a.46.46,0,0,0-.5-.4Zm-137.1.8c-.4,0-.6.1-.6.5s.2.5.7.5a4.57,4.57,0,0,1,2.8,1.2,4.68,4.68,0,0,1,.8,3v20.4a17.47,17.47,0,0,1-.4,4.7,2.11,2.11,0,0,1-1.4,1.6l-1.2.3q-.6.15-.6.6c0,.3.2.5.6.5a11.45,11.45,0,0,0,1.5-.1c.6,0,1.1-.1,1.5-.1h3.6a19.53,19.53,0,0,1,2.9.1,6.82,6.82,0,0,0,1.2.1c.5,0,.7-.2.7-.5s-.3-.6-.9-.6a4.62,4.62,0,0,1-2.9-1.2,5.78,5.78,0,0,1-.8-3.5v-8.7a2.21,2.21,0,0,1,.3-1.4,2.94,2.94,0,0,1,1.7-.3h14a3,3,0,0,1,1.4.2,2.75,2.75,0,0,1,.2,1.3v9.6c0,2.4-.8,3.8-2.5,4.1-.5.1-.8.3-.8.5s.2.5.6.5a14.75,14.75,0,0,0,1.6-.1c.5,0,.9-.1,1.1-.1H217a13.57,13.57,0,0,1,2.4.1,5.74,5.74,0,0,0,1.2.1c.5,0,.7-.2.7-.6s-.3-.4-.8-.5a3.29,3.29,0,0,1-2.7-1.2c-.5-.6-.7-1.8-.7-3.5v-23a4.65,4.65,0,0,1,.5-2.1,1.84,1.84,0,0,1,1.2-1.1l1-.2c.4-.1.6-.2.6-.5s-.2-.5-.6-.5a3.44,3.44,0,0,0-.9.1,32.41,32.41,0,0,1-3.6.1,32.52,32.52,0,0,1-3.3-.2,11,11,0,0,0-1.6-.1c-.4,0-.6.1-.6.4s.2.5.7.6a3.52,3.52,0,0,1,2.3,1.4,7.3,7.3,0,0,1,.6,3.5v8.1a1.22,1.22,0,0,1-.3.9,3.09,3.09,0,0,1-1.3.2h-14a3.12,3.12,0,0,1-1.8-.3c-.2-.2-.3-.7-.3-1.6v-8.4a4.94,4.94,0,0,1,.5-2.5,4.16,4.16,0,0,1,2.1-1.2c.4-.1.6-.3.6-.5s-.2-.5-.7-.5a4.14,4.14,0,0,0-1,.1,30.48,30.48,0,0,1-3.2.2c-1.7,0-3.1-.1-4.3-.2a4.19,4.19,0,0,0-1.4-.2Zm53.5,0c-.4,0-.6.1-.6.5s.2.5.7.5a4.57,4.57,0,0,1,2.8,1.2,4.68,4.68,0,0,1,.8,3v20.4a17.47,17.47,0,0,1-.4,4.7,2.11,2.11,0,0,1-1.4,1.6l-1.2.3q-.6.15-.6.6c0,.3.2.5.6.5a11.45,11.45,0,0,0,1.5-.1c.6,0,1.1-.1,1.5-.1h3.6a19.53,19.53,0,0,1,2.9.1,6.82,6.82,0,0,0,1.2.1c.5,0,.7-.2.7-.5s-.3-.6-.9-.6a4.62,4.62,0,0,1-2.9-1.2,5.78,5.78,0,0,1-.8-3.5v-8.7a2.21,2.21,0,0,1,.3-1.4,2.94,2.94,0,0,1,1.7-.3h14a3,3,0,0,1,1.4.2,2.75,2.75,0,0,1,.2,1.3v9.6c0,2.4-.8,3.8-2.5,4.1-.5.1-.8.3-.8.5s.2.5.6.5a14.75,14.75,0,0,0,1.6-.1c.5,0,.9-.1,1.1-.1h3.6a13.57,13.57,0,0,1,2.4.1,5.74,5.74,0,0,0,1.2.1c.5,0,.7-.2.7-.6s-.3-.4-.8-.5a3.29,3.29,0,0,1-2.7-1.2c-.5-.6-.7-1.8-.7-3.5v-23a4.65,4.65,0,0,1,.5-2.1,1.84,1.84,0,0,1,1.2-1.1l1-.2c.4-.1.6-.2.6-.5s-.2-.5-.6-.5a3.44,3.44,0,0,0-.9.1,32.41,32.41,0,0,1-3.6.1,32.51,32.51,0,0,1-3.3-.2,11,11,0,0,0-1.6-.1c-.4,0-.6.1-.6.4s.2.5.7.6a3.52,3.52,0,0,1,2.3,1.4,7.3,7.3,0,0,1,.6,3.5v8.1a1.22,1.22,0,0,1-.3.9,3.09,3.09,0,0,1-1.3.2h-14a3.12,3.12,0,0,1-1.8-.3c-.2-.2-.3-.7-.3-1.6v-8.4a4.94,4.94,0,0,1,.5-2.5,4.16,4.16,0,0,1,2.1-1.2c.4-.1.6-.3.6-.5s-.2-.5-.7-.5a4.14,4.14,0,0,0-1,.1,30.48,30.48,0,0,1-3.2.2c-1.7,0-3.1-.1-4.3-.2a4.51,4.51,0,0,0-1.4-.2Zm160.4,0c-.4,0-.6.1-.6.5s.2.5.7.5a4.57,4.57,0,0,1,2.8,1.2,4.68,4.68,0,0,1,.8,3v20.4a17.47,17.47,0,0,1-.4,4.7,2.11,2.11,0,0,1-1.4,1.6l-1.2.3q-.6.15-.6.6c0,.3.2.5.6.5a11.45,11.45,0,0,0,1.5-.1c.6,0,1.1-.1,1.5-.1h3.6a19.53,19.53,0,0,1,2.9.1,6.82,6.82,0,0,0,1.2.1c.5,0,.7-.2.7-.5s-.3-.6-.9-.6a4.62,4.62,0,0,1-2.9-1.2,6,6,0,0,1-.8-3.5v-8.7a2.21,2.21,0,0,1,.3-1.4,2.94,2.94,0,0,1,1.7-.3h14a3,3,0,0,1,1.4.2,2.75,2.75,0,0,1,.2,1.3v9.6c0,2.4-.8,3.8-2.5,4.1-.5.1-.8.3-.8.5s.2.5.6.5a14.75,14.75,0,0,0,1.6-.1c.5,0,.9-.1,1.1-.1h3.6a13.57,13.57,0,0,1,2.4.1,5.74,5.74,0,0,0,1.2.1c.5,0,.7-.2.7-.6s-.3-.4-.8-.5a3.29,3.29,0,0,1-2.7-1.2c-.5-.6-.7-1.8-.7-3.5v-23a4.65,4.65,0,0,1,.5-2.1,1.84,1.84,0,0,1,1.2-1.1l1-.2c.4-.1.6-.2.6-.5s-.2-.5-.6-.5a3.44,3.44,0,0,0-.9.1,32.41,32.41,0,0,1-3.6.1,32.51,32.51,0,0,1-3.3-.2,11,11,0,0,0-1.6-.1c-.4,0-.6.1-.6.4s.2.5.7.6a3.52,3.52,0,0,1,2.3,1.4,7.3,7.3,0,0,1,.6,3.5v8.1a1.22,1.22,0,0,1-.3.9,3.09,3.09,0,0,1-1.3.2h-14a3.12,3.12,0,0,1-1.8-.3c-.2-.2-.3-.7-.3-1.6v-8.4a4.94,4.94,0,0,1,.5-2.5,4.16,4.16,0,0,1,2.1-1.2c.4-.1.6-.3.6-.5s-.2-.5-.7-.5a4.14,4.14,0,0,0-1,.1,30.48,30.48,0,0,1-3.2.2c-1.7,0-3.1-.1-4.3-.2a4.19,4.19,0,0,0-1.4-.2Zm-339.4,0a5.38,5.38,0,0,0-1.1.1,27.32,27.32,0,0,1-3.2.1,23.58,23.58,0,0,1-2.9-.1h-.4c-.5,0-.7.2-.7.5s.4.6,1.1.8c1.3.3,2,.8,2,1.5s-.9,3.6-2.7,8.3-3.7,9.3-5.8,13.9c-.3.6-.5,1.1-.6,1.3-.3.7-.6,1.1-.8,1.1s-.6-.6-1.1-1.9l-4.8-11.3,3.9-9.2a14.34,14.34,0,0,1,1.5-3.1,2.54,2.54,0,0,1,1.3-.9c.6-.2.8-.4.8-.6,0-.4-.2-.6-.7-.6a4.59,4.59,0,0,0-1,.1,14.17,14.17,0,0,1-2.3.1,17,17,0,0,1-2.4-.1H42c-.6,0-.8.2-.8.5s.4.6,1.1.8c1,.2,1.6.6,1.6,1.4,0,1.2-.9,3.9-2.7,7.9-.1.2-.3.6-.5,1.1l-2.5-5.9a8.11,8.11,0,0,1-.9-2.9,1.59,1.59,0,0,1,1.1-1.5c.5-.2.8-.4.8-.7s-.3-.6-.8-.6a4.59,4.59,0,0,0-1,.1,20.93,20.93,0,0,1-2.4.1l-4.6-.1h-.9c-.6,0-1,.2-1,.5s.6.7,1.9.9a2.64,2.64,0,0,1,1.9.9,13.84,13.84,0,0,1,1.7,3.2l2,4.6,2.1,4.9a13.32,13.32,0,0,1,.6,1.4l-4.1,9.6-.1.3c-.2.5-.4.8-.5.8s-.2-.2-.4-.5l-.3-.5c-.1-.2-.3-.6-.5-1.1l-2.3-5.1c-.5-1.1-1.3-3-2.4-5.8s-2-4.9-2.6-6.2a16.38,16.38,0,0,1-1.7-5.1c0-.6.5-1.1,1.5-1.4a.63.63,0,0,0,.5-.6.53.53,0,0,0-.6-.6,11.45,11.45,0,0,0-1.5.1h-4.9a16.27,16.27,0,0,1-2.4-.1h-.6c-.5,0-.7.2-.7.6a.63.63,0,0,0,.5.6l1,.2a4,4,0,0,1,2.4,1.6,22.11,22.11,0,0,1,2.3,4.5l.6,1.6,9.8,23.5c.5,1.2,1,1.8,1.4,1.9s.6-.3.9-1l5.9-14.2,5.9,13.8c.3.8.7,1.1,1,1.1s.8-.4,1.2-1.3l.4-.7.5-1.2,1.1-2.6,1.9-4.5,2.9-6.4,2.7-6.3c1.1-2.7,2-4.6,2.5-5.7l1.3-2.8a2.41,2.41,0,0,1,1.4-1.4c.5-.2.7-.4.7-.7-.1-.8-.3-.9-.6-1Zm4.7,0c-.7,0-1.1.2-1.1.7,0,.3.2.5.7.5a3.19,3.19,0,0,1,2.9,1.2,9.36,9.36,0,0,1,.8,4.6v21.6c0,1.9-.6,3-1.7,3.3l-.9.3q-.6.15-.6.6c0,.3.3.5.8.5.2,0,.6-.1,1.2-.2a38.86,38.86,0,0,1,5.9-.3c2,0,4.5.1,7.5.4a14.16,14.16,0,0,0,1.9.1,6.67,6.67,0,0,0,5.3-2.6,6,6,0,0,0,1.7-3.7c0-.4-.1-.6-.4-.6s-.3.2-.5.4q-2.7,4.2-12,4.2a8.65,8.65,0,0,1-3.7-.5c-.5-.3-.7-1.2-.7-2.5v-9.5a1.05,1.05,0,0,1,.4-1,3.22,3.22,0,0,1,1.6-.2h5.3a5.22,5.22,0,0,1,2.9.6,2.76,2.76,0,0,1,1.1,2.2l.1.7a.63.63,0,0,0,.6.5c.3,0,.5-.2.5-.6v-.7a28.1,28.1,0,0,1-.1-2.9c0-1.3.1-2.7.2-4.2v-.5c0-.4-.2-.6-.5-.6s-.5.2-.6.6a4.44,4.44,0,0,1-.7,2,3.42,3.42,0,0,1-1.7.7,20.57,20.57,0,0,1-3.9.3h-3.9a2.23,2.23,0,0,1-1.2-.2,3.09,3.09,0,0,1-.2-1.3v-9.6c0-.8.1-1.4.4-1.6s.9-.4,1.9-.4h3.7a20.06,20.06,0,0,1,5.1.4,2.41,2.41,0,0,1,1.8,1.4,3.53,3.53,0,0,1,.3,1.4v.6c0,.5.2.7.5.7s.4-.1.5-.4a5,5,0,0,0,.2-1.7l.1-1.4a13.13,13.13,0,0,1,.2-1.9,4.33,4.33,0,0,1,.1-.5c0-.5-.3-.7-.8-.7a3.44,3.44,0,0,0-.9.1c-.2,0-.8.1-1.7.1l-3.4.2c-1.5.1-3.2.1-5.1.1a65,65,0,0,1-8.2-.4c-.7-.2-1.3-.2-1.7-.3Zm213.9,0c-.7,0-1.1.2-1.1.7,0,.3.2.5.7.5a3.19,3.19,0,0,1,2.9,1.2,9.36,9.36,0,0,1,.8,4.6v21.6c0,1.9-.6,3-1.7,3.3l-.9.3q-.6.15-.6.6c0,.3.3.5.8.5.2,0,.6-.1,1.2-.2a38.86,38.86,0,0,1,5.9-.3c2,0,4.5.1,7.5.4a14.16,14.16,0,0,0,1.9.1,6.67,6.67,0,0,0,5.3-2.6,6,6,0,0,0,1.7-3.7c0-.4-.1-.6-.4-.6s-.3.2-.5.4q-2.7,4.2-12,4.2a8.65,8.65,0,0,1-3.7-.5c-.5-.3-.7-1.2-.7-2.5v-9.5a1.05,1.05,0,0,1,.4-1,3.22,3.22,0,0,1,1.6-.2h5.2a5.22,5.22,0,0,1,2.9.6,2.76,2.76,0,0,1,1.1,2.2l.1.7a.63.63,0,0,0,.6.5c.3,0,.5-.2.5-.6v-.7a28.1,28.1,0,0,1-.1-2.9c0-1.3.1-2.7.2-4.2v-.5c0-.4-.1-.6-.5-.6s-.5.2-.6.6a4.44,4.44,0,0,1-.7,2,3.42,3.42,0,0,1-1.7.7,20.57,20.57,0,0,1-3.9.3h-3.7a2.23,2.23,0,0,1-1.2-.2,3.09,3.09,0,0,1-.2-1.3v-9.6c0-.8.1-1.4.4-1.6s.9-.4,1.9-.4h3.7a20.06,20.06,0,0,1,5.1.4,2.41,2.41,0,0,1,1.8,1.4,3.53,3.53,0,0,1,.3,1.4v.6c0,.5.1.7.5.7s.4-.1.5-.4a5,5,0,0,0,.2-1.7l.1-1.4a13.13,13.13,0,0,1,.2-1.9,4.33,4.33,0,0,1,.1-.5c0-.5-.3-.7-.8-.7a3.44,3.44,0,0,0-.9.1c-.2,0-.8.1-1.7.1l-3.4.2c-1.5.1-3.2.1-5.1.1a65,65,0,0,1-8.2-.4c-.9-.2-1.4-.2-1.8-.3Zm-149.1.2c-.5,0-.8.2-.8.5s.2.4.6.5l1.1.2c1.7.3,2.6,1.6,2.6,3.7v22.3a6.91,6.91,0,0,1-.6,3.3,3.67,3.67,0,0,1-2.2,1.4q-.6.15-.6.6c0,.3.2.4.6.4s.8-.1,1.3-.1a32.82,32.82,0,0,1,4.9-.3c1.7,0,3.3.1,4.8.2l2.6.2c.7,0,1.3.1,1.8.1,3.1,0,5.3-.9,6.6-2.6a5.84,5.84,0,0,0,1.5-3.4c0-.3-.1-.5-.4-.5s-.4.2-.7.6c-.6,1.2-2,2.1-4.2,2.8a25.24,25.24,0,0,1-7.7,1c-2,0-3.2-.2-3.6-.5s-.5-1.5-.5-3.4V26.89c0-2.5.7-3.9,2.1-4.3l.8-.2c.5-.1.7-.3.7-.7,0-.2-.2-.4-.6-.4h-1c-1.2.1-2.5.1-4,.1-1.3,0-2.6,0-3.6-.1a7.44,7.44,0,0,1-1.5,0Zm213.9,0c-.5,0-.8.2-.8.5s.2.4.6.5l1.1.2c1.7.3,2.6,1.6,2.6,3.7v22.3a6.91,6.91,0,0,1-.6,3.3,3.67,3.67,0,0,1-2.2,1.4q-.6.15-.6.6c0,.3.2.4.6.4s.8-.1,1.3-.1a32.82,32.82,0,0,1,4.9-.3c1.7,0,3.3.1,4.8.2l2.6.2c.7,0,1.3.1,1.8.1,3.1,0,5.3-.9,6.6-2.6a5.84,5.84,0,0,0,1.5-3.4c0-.3-.1-.5-.4-.5s-.4.2-.7.6c-.6,1.2-2,2.1-4.2,2.8a25.24,25.24,0,0,1-7.7,1c-2,0-3.2-.2-3.6-.5s-.5-1.5-.5-3.4V26.89c0-2.5.7-3.9,2.1-4.3l.8-.2c.5-.1.7-.3.7-.7,0-.2-.2-.4-.6-.4h-1c-1.2.1-2.5.1-4,.1-1.3,0-2.6,0-3.6-.1a7.22,7.22,0,0,1-1.5,0Zm-190,.2a1.25,1.25,0,0,0-1.1.4c-.2.2-.2.7-.2,1.4a11,11,0,0,1-.4,2.8,10.53,10.53,0,0,0-.3,1.8c0,.4.1.6.4.6s.5-.3.6-.9a6,6,0,0,1,1.3-2.9,4.25,4.25,0,0,1,2.8-.8h6.3a2,2,0,0,1,1.1.2,1.44,1.44,0,0,1,.3,1.1v24.1a4.84,4.84,0,0,1-.6,2.8,4.18,4.18,0,0,1-2.5,1c-.5.1-.8.2-.8.5s.2.5.7.5a13.61,13.61,0,0,0,1.6-.1c.5,0,1-.1,1.7-.1h3.6a9.85,9.85,0,0,1,2.1.1,6.82,6.82,0,0,0,1.2.1c.4,0,.7-.2.7-.5s-.3-.5-.8-.5a3.28,3.28,0,0,1-3.1-3.3V25.59a2.21,2.21,0,0,1,.3-1.4,1.88,1.88,0,0,1,1.3-.3h6.7a5.56,5.56,0,0,1,2.7.5,3.23,3.23,0,0,1,1,2.2c.1.5.3.8.6.7s.5-.3.5-.8c0-.2-.1-.6-.1-1.2a10.36,10.36,0,0,1-.1-2,2.94,2.94,0,0,0-.3-1.7c-.2-.2-.7-.3-1.6-.3Zm213.9,0a1.25,1.25,0,0,0-1.1.4c-.2.2-.2.7-.2,1.4a11,11,0,0,1-.4,2.8,10.53,10.53,0,0,0-.3,1.8c0,.4.1.6.4.6s.5-.3.6-.9a6,6,0,0,1,1.3-2.9,4.25,4.25,0,0,1,2.8-.8h6.3a2,2,0,0,1,1.1.2,1.44,1.44,0,0,1,.3,1.1v24.1a4.84,4.84,0,0,1-.6,2.8,4.18,4.18,0,0,1-2.5,1c-.5.1-.8.2-.8.5s.2.5.7.5a13.61,13.61,0,0,0,1.6-.1c.5,0,1-.1,1.7-.1h3.6a9.85,9.85,0,0,1,2.1.1,6.82,6.82,0,0,0,1.2.1c.4,0,.7-.2.7-.5s-.3-.5-.8-.5a3.28,3.28,0,0,1-3.1-3.3V25.59a2.21,2.21,0,0,1,.3-1.4,1.88,1.88,0,0,1,1.3-.3H393a5.57,5.57,0,0,1,2.7.5,3.23,3.23,0,0,1,1,2.2c.1.5.3.8.6.7s.5-.3.5-.8c0-.2-.1-.6-.1-1.2a10.36,10.36,0,0,1-.1-2,2.94,2.94,0,0,0-.3-1.7c-.2-.2-.7-.3-1.6-.3ZM110.33,27c.2,0,.4.3.6.8l.2.5,3.7,9.4.1.4a1.34,1.34,0,0,1,.1.5q0,.6-1.2.6H106c-.7,0-1.1-.2-1.1-.6a4.18,4.18,0,0,1,.3-.9l4.6-10.3c.3-.2.4-.4.5-.4Zm213.9,0c.2,0,.4.3.6.8l.2.5,3.7,9.4.1.4a1.34,1.34,0,0,1,.1.5q0,.6-1.2.6h-7.8c-.7,0-1.1-.2-1.1-.6a4.18,4.18,0,0,1,.3-.9l4.6-10.3c.2-.2.3-.4.5-.4Z" transform="translate(-15.13 -20.29)"/></g></g></svg>