<svg id="svg8" xmlns="http://www.w3.org/2000/svg" viewBox="0 0 421.71 422.93"><defs><style>.cls-1{fill:#035500;}</style></defs><title>Design</title><g id="layer1"><g id="g826"><path id="path840" class="cls-1" d="M240.53,448.46c-9.7-4.1-15.3-13.1-15.3-24.6,0-22.1,24.4-33.1,41.4-18.7,17.4,14.6,8.1,43-14.5,44.4-4.2.3-9.5-.3-11.6-1.1Zm-78.4-16.4c-5.1-11.2-4.4-19.1,2.6-33.4,4.4-8.9,9.1-15.4,17.6-24.1,12.2-12.5,17.3-14.8,19-8.4,2.1,7.7.9,29.5-2.2,40.9-4.7,17.4-8.4,23.1-18.2,28.1-12,6.1-14.8,5.7-18.8-3.1Zm156.6,3.1c-7.4-3.6-8.7-5.1-12.5-13.5-6.1-13.6-9.7-32.6-8.4-45.7.5-5.9,1.4-11.3,1.8-12,2.3-3.7,7.9-.6,18.3,9.9,8.3,8.4,12.8,14.7,17.7,24.7,7.7,15.6,8.2,21.4,2.7,32.5C333.83,440.26,330.43,440.86,318.73,435.16Zm-114.2-20.9c-.4-1.1.1-4.1,1.1-6.5,1.2-2.9,1.9-12.7,2-27.5.1-12.7.6-23.8,1.3-24.8,1.6-2.6,21.6-8.8,24.6-7.6,3.4,1.3,3.2,9.9-.5,24.7-3.6,14-10.4,27.5-18.8,37-6.3,7.1-8.4,8.1-9.7,4.7Zm86.2.5c-5.1-3-18-24.6-21.7-36.4-4.8-15.2-5.7-27.7-2.3-29.9,2.8-1.8,23,3.9,25.9,7.4,1.2,1.4,1.2,5.4,0,14.1a75.17,75.17,0,0,0-.1,22.7c.9,5.9,2,13.6,2.5,17.2,1,6.6.2,7.5-4.3,4.9Zm-177.3-19.9c-13.4-4.1-20.4-13.8-19.3-27.1.7-8.9,3.7-14.2,11-19.6,3.2-2.4,6.5-3.2,13.9-3.2,10.9,0,15.7,2.6,21.9,11.6,4.8,6.9,4.2,21.2-1,28.3-6.1,8.4-17.6,12.7-26.5,10Zm261.9-.1c-7.4-1.7-12.7-6-16.6-13.8-4.4-8.6-4.3-14.6.1-23.1,9.6-18.3,36.3-18,45.2.6,3.8,7.9,4,13,.9,20.6-5.3,12.6-16.6,18.6-29.6,15.7Zm-219.9-11c1.5-17.9,9.4-37.3,20.1-49.8,7.9-9.2,10.2-8.6,16.7,4.4,3,6,5.5,11.8,5.5,12.9s-4,5.1-9,8.9a109.85,109.85,0,0,0-25.2,28.1c-2.2,3.6-5.2,6.5-6.6,6.5C154.83,394.86,154.63,393.36,155.43,383.76Zm181.6,4.8c-4.4-7.9-21.6-26.3-28.5-30.6-6.5-4.1-6.6-7-.2-19.8,6.6-13.3,9.5-13.7,17.7-2.8,11.2,14.9,20,38.7,20.1,54.5,0,7.3-4.7,6.6-9.1-1.3Zm-138.6-50.8a118.57,118.57,0,0,0-6.9-12.6c-4.3-4.4,3-11.4,20-19.1,10.7-4.9,13.4-4.3,16.9,3.5,4.2,9.6,8.1,27.2,6.3,29-1.4,1.4-26.7,10.4-29.3,10.4-.8-.1-3.9-5.1-7-11.2Zm81.2,6.5c-6.7-2.3-12.9-5.3-13.7-6.7-1.1-1.8-.8-5.3,1-12.4,3.9-14.8,7.5-21.5,11.8-22.2s24.4,9.2,29.1,14.3l3.3,3.5-7.4,13.6c-4,7.5-8.4,13.7-9.6,13.8s-7.8-1.6-14.5-3.9Zm-36.7-7a10.09,10.09,0,0,1-2.4-6.2c0-2.1-1.8-9.3-4-15.9s-3.6-13.2-3.1-14.5c.7-1.9,3.8-2.4,15.9-2.3,8.2,0,16,.7,17.2,1.4,1.9,1.2,1.6,3.2-1.8,13.4-2.2,6.6-4.5,14.4-5.1,17.4s-1.7,6.2-2.6,7.3C254.83,340.46,245.83,340.06,242.93,337.26Zm-149.1-5.8c0-1.1,4-4.6,8.9-7.6,8.5-5.3,29.3-25.6,29.3-28.6,0-.8,1.4-2.2,3.1-3.1,2.5-1.3,4.9-.9,11.8,2.3,10.2,4.7,14.1,7.9,14.1,11.6,0,5.6-21.4,19-38.8,24.3-12.2,3.7-28.4,4.3-28.4,1.1Zm285.1-.8c-18.8-5.5-42.2-21.2-40-26.9.6-1.5,6.3-5.2,12.8-8.3l11.8-5.6,5.4,6.8c8.7,10.9,19,20.7,28.5,27,4.9,3.2,8.9,6.6,8.9,7.4.2,2.8-17.7,2.4-27.4-.4ZM58.63,327c-4.9-2-8.6-4.6-8.9-6.1s1.4-6.8,3.7-12c3.6-7.9,5.2-9.9,11.2-12.9,14.8-7.4,22.9-9.2,41.8-9.3,25.4-.1,26.1,2.2,7.2,20.7-11.7,11.4-29.5,21.4-39.9,22.4-4.7.5-9.3-.3-15.1-2.8Zm351.5-2.9c-9.7-4.8-15.7-9.3-24.6-18.2-6.5-6.5-11.9-13-11.9-14.4,0-9.2,42.7-6.4,61.7,4.1,4.9,2.7,7.4,5.7,11.3,13.3,5.9,11.7,5.1,14.2-5.8,18.7-10.7,4.3-16.4,3.6-30.7-3.5Zm-231.6-15.2-4.5-4.7,3.5-5.7c1.9-3.1,5.9-10.7,9-16.8,4.1-8.4,6.2-11.1,8.6-11.1,4.3,0,22.5,18.4,22.5,22.8,0,2.6-1.9,4.2-8.4,7.1a110.36,110.36,0,0,0-15.2,8.4c-3.7,2.6-7.8,4.7-8.9,4.7s-4.1-2.1-6.6-4.7Zm129.1,1a174.3,174.3,0,0,0-15.3-8.8c-5.4-2.8-10-6.2-10.2-7.5-.7-3.6,19.4-23.1,23.1-22.6,2,.3,4.9,4.1,8.6,11.2,3.1,5.9,7.1,13.2,9,16.3l3.4,5.6-4,4.8c-4.8,5.7-7.4,5.9-14.6,1Zm-153.4-17.8c-5.9-3.2-11.5-6.5-12.5-7.4-1.3-1.2-.6-5.2,2.8-15.8,2.5-7.8,5.3-14.7,6.1-15.2,4.2-2.6,32.5,6.4,35.1,11.1,1.2,2.3.4,5.4-3.8,14-6.4,13.4-11,19.5-14.4,19.3-1.5-.1-7.5-2.8-13.3-6Zm170.7-1.6c-6.6-10.1-11.5-22.2-10.4-25.2,1.7-4.5,27.9-13.4,34.8-11.9,1.6.3,3.7,4.7,5.9,12.4,4.9,16.7,4.8,18.9-.7,21.6-2.5,1.3-7.9,4.2-12,6.6s-8.5,4.3-10,4.3-4.8-3.5-7.6-7.8Zm-104.6-5.7a106.65,106.65,0,0,0-14-14.5c-4.3-3.5-8.4-6.9-9.1-7.5s-1.3-11.4-1.3-24V216l15.8-15.9,15.8-15.9,23.5-.1,23.5-.1,5.4,7.4a104.33,104.33,0,0,0,14.8,15.2l9.3,7.8.1,23.1.1,23.1L291.63,273c-6.9,6.7-13.5,13.9-14.8,15.9-2.3,3.5-2.9,3.6-26.3,3.8l-23.9.2-6.3-8.1Zm-147.2-1.9c-1.6-2.6,11.5-13.5,24.1-19.8,12.3-6.2,31.4-11.4,38.9-10.5,3.2.4,4.5,1.4,4.9,4,.7,4.8-5.6,23-8.4,24.6-1.3.7-5.2.8-8.7.1-9.9-1.9-25.2-1.5-36.9,1-12.9,2.6-12.7,2.6-13.9.6Zm340.2-.8c-9.7-2.2-27-2.7-36.2-.9-3.5.7-7.4.6-8.8-.2-4.2-2.4-10.9-21.9-9-26.7,1.9-5,29,.3,45,8.8,15.7,8.4,28.4,21.7,20.1,21A76,76,0,0,1,413.33,282.06Zm-358.7-20.5c-11.6-5.3-18-18-14.6-29.2,3.6-11.9,13.7-20,25.1-20,8.2,0,18,6.1,22,13.7,7.5,14.2,2.4,28.6-12.5,35.5-7.7,3.6-12.1,3.6-20,0Zm373.7,1.5c-11.4-3.6-18-13-18-25.3,0-8.9,3-14.8,10.2-20.3,4.7-3.6,7.1-4.3,15-4.3s10.3.7,15.2,4.4c13.7,10.5,13.4,32.4-.5,41.7-6.3,4-15.8,5.7-21.9,3.8Zm-116.2-8c-2.9-1.8-3.7-28.8-.9-32.5,1.9-2.6,2.7-2.5,16.5,1.8,8,2.5,16.4,5,18.8,5.5,4.1.8,4.3,1.3,3.8,8.1-.4,6.2-1,7.4-4.3,8.3-2.1.6-10.1,3.1-17.9,5.5-8.2,2.7-14.8,4.1-16,3.3Zm-132.7-1.2c-2-1.2-11.7-3.9-24.9-6.9-4.1-.9-4.3-1.3-3.8-8.8l.5-7.9,11.5-2.7a134.59,134.59,0,0,0,17.3-5.2c4.3-1.8,6.4-2,7.9-.8,2.7,2.2,4.2,17.4,2.7,26.1-1,5.8-1.8,7-5,7.3-2.2.1-5-.3-6.2-1.1Zm-53.9-30.8c-17.8-3-38.3-13-48.4-23.5-4.4-4.6-4.8-5.6-2.7-6.4,1.4-.5,6.1,0,10.6,1.1,7,1.8,27.7,2.2,43.2.9,4.1-.3,5,.4,7.9,6.5,4.5,9.3,6.1,19.8,3.3,21.6-2.4,1.5-3.8,1.5-13.9-.2Zm234.4-.6c-1.6-2-1.4-4.3,1.3-13,3.7-12.2,6.7-16.1,11.6-14.8,8.1,2,25.2,2.6,33.7,1.1,5-.9,11.8-2.1,14.9-2.6,19.4-3.5-12.3,21.1-35.6,27.5-14.2,3.8-23.6,4.5-25.9,1.8Zm-210.7-1.3a26.21,26.21,0,0,1-2.7-7.3,113.85,113.85,0,0,0-3.9-12.4c-1.5-3.9-2.2-7.8-1.6-8.9,1.4-2.2,24.1-14,27-14,4.7,0,20.1,27.7,18.2,32.6-1.5,4-22.5,11.7-32.2,11.8A6.56,6.56,0,0,1,149.23,221.16Zm179.4-2.3c-6.6-2.3-12.8-5.3-13.7-6.7-3-4.7,11.7-33.5,17.1-33.5,3.9,0,27.7,12.8,27.7,14.9,0,1.9-5.3,19.9-7.7,26.1-1.8,4.7-8.1,4.4-23.4-.8Zm-139.4-19.8a111.81,111.81,0,0,0-8.5-16.2c-3.2-5-5.8-9.6-5.8-10.3,0-2.9,6.6-9.4,9.5-9.4,1.8,0,6.4,2,10.2,4.5a161.25,161.25,0,0,0,14.7,8.1c4.2,2,8.1,4.2,8.7,5,1.7,2.3-3.4,9.7-12.3,17.9C195.33,208.26,192.73,208.26,189.23,199.06Zm103.1-3.3c-5.7-5.8-10.4-11.6-10.4-13.1,0-1.7,3-3.9,8.5-6.4a131.21,131.21,0,0,0,15.4-8.4c3.8-2.6,8.1-4.6,9.7-4.6,3.5,0,11.2,8.8,9.7,11.2-.6,1-3.2,5.2-5.9,9.5a115.41,115.41,0,0,0-8,15c-2,4.6-4.2,7.3-5.8,7.3s-7.5-4.8-13.2-10.5Zm-203.9-7.1c-13.6-3.2-25.8-8.1-29.5-12-3.4-3.7-9.5-16.8-9.5-20.5,0-3.1,16.4-10.4,23-10.3,8.8.2,27.9,10.6,39.8,21.7,12.6,11.7,16.3,17.5,12.9,20.3s-26.1,3.3-36.7.8Zm291.3.9c-3-.6-5.5-2.1-5.8-3.4-1.3-6.8,21.4-27.4,39.4-35.6,12.1-5.6,18.2-5.8,28.7-1.2,9.5,4.2,10.1,7,4.3,19.6-4.1,8.8-10.5,13.1-26.9,18-9.4,2.7-31.5,4.3-39.7,2.6Zm-250.1-12.1a122.17,122.17,0,0,0-27.1-25.2c-4.9-3.3-8.6-6.9-8.3-7.9,1-3,9.8-2.9,22.4.3,15,3.8,26.9,9.4,36.9,17.3,10.2,8.1,9.8,11.2-2.4,17.8C138.73,186.36,136.53,186.16,129.63,177.46Zm219.3,2.1c-13.3-7.1-13.4-9.5-.6-18.7a101.44,101.44,0,0,1,42.5-17.8c10.5-1.7,12.2-1.7,14.3.5s1.7,2.9-6.2,8a105.77,105.77,0,0,0-27.8,25.7C364.53,186.36,362,186.56,348.93,179.56Zm-113.5-2.1c-3.2-.8-3.1-2.4,2.1-20.4,1.8-6.3,3.8-13.2,4.4-15.3.9-3.4,1.8-3.8,8.6-3.8h7.6l2.4,10.7a150.88,150.88,0,0,0,5.3,18.2c2.8,7.3,2.8,7.5,0,9.6s-23.7,2.8-30.4,1Zm-27.7-8.9c-5.9-3-12.4-7.1-14.5-9.2l-3.8-3.8,6.6-12.7c3.7-7,7.2-13.3,7.9-14.1s5.3-.2,11.6,1.8c5.7,1.8,11.8,3.7,13.6,4.2,6.2,1.7,6.9,4.2,4.4,15.6-2.9,12.7-8.2,22.6-12.3,23.2-1.5.3-7.6-2-13.5-5Zm64.2-2.6c-4.5-10-8.1-26.7-6.1-28.5s27.8-9.9,29.5-9.2c.8.3,4.6,6.7,8.5,14.2,6.7,13,7,13.8,4.5,16.5-3.3,3.7-25.9,15.1-29.8,15.1-2.1-.1-4-2.4-6.6-8.1Zm-96-23c-12-14.9-19-31.9-20.5-49.6-1.2-14,.8-15.5,7.4-5.7,2.7,4,11.7,14.1,20.1,22.3l15.2,15-2.6,6.5c-3.6,9.1-9.6,18-12.2,18-1.2,0-4.5-2.9-7.4-6.5Zm137.7,3.8c-3.6-4-10.4-18.3-10.4-21.7,0-1.8,2.9-5.2,7.4-8.4a108.78,108.78,0,0,0,25.6-27.8c5.9-9.2,8.8-10.1,9.5-2.8,1.3,13.4-8.4,40.4-19.8,55.3-6.7,8.7-8.7,9.6-12.3,5.4Zm-205.5-17.1c-9.7-4.4-13.6-11.1-13.6-23.2s3.9-18.7,13.6-23.2c8.3-3.8,14.1-3.6,22.4.5,9.6,4.9,13.7,11.7,13.7,22.6s-4.1,17.8-13.7,22.6C122.33,133.26,116.43,133.46,108.13,129.66Zm263.2.7c-6.6-2.9-12.4-9.9-14.6-17.3-5.3-17.9,11.2-35.5,30-32,7.5,1.4,17.1,10.4,19.1,18.1C411.43,120.06,390.53,139,371.33,130.36Zm-147.6-3a85,85,0,0,1-11.9-4.5l-5-2.6.9-17.2c.9-15.6.1-25-3.3-38.3-.9-3.5-.6-4.2,2-4.2,4,0,14.1,13.2,20.1,26.1,8.6,18.5,12.1,40,6.9,42a9,9,0,0,1-2.7.8c0-.2-3.2-1.1-7-2.1Zm41.4-.7c-2.8-5.3,2.1-27.7,9.1-41.6,5.6-11,16.2-24.5,19.3-24.5,2.6,0,2.7-1.1-1,23a84.35,84.35,0,0,0,.1,23c1.9,15.2,1.9,15.2-13.6,20-11.9,3.6-12,3.6-13.9.1Zm-82.5-24.4c-8.5-8.7-13.3-15.2-17.7-24.2-7.1-14.4-7.8-22.2-2.7-33.4,2.8-6.2,3.9-7.3,7.7-7.3,2.4,0,7.9,1.8,12.2,3.9,6.6,3.3,8.4,5.2,11.8,12.4,5.7,12.1,8.5,25.3,8.5,40.9,0,14.2-1.5,19.5-5.6,19.5C195.33,114.16,189,108.86,182.63,102.26Zm116.9,10.6c-.5-.7-1.3-6.1-1.8-12-1.2-13.3,2.4-32.6,8.6-46.1,4-8.7,5.3-10,12.5-13.4,12.7-5.9,15.5-5.3,19.7,4.2,5,11.4,4.4,17.2-3.3,32.8C325.53,98.06,303.53,119.26,299.53,112.86Zm-62-38.7c-10-5.9-14.4-16.3-11.9-28.6,1.4-6.9,8.1-15,14.5-17.4,6.9-2.6,18-1.6,23.4,2.1,8.8,6,11.5,11,11.5,21.7,0,8.1-.6,10.4-4.3,15.2-2.4,3.1-6.3,6.7-8.7,7.9C255.63,78.36,243.93,78,237.53,74.16Z" transform="translate(-39.12 -26.7)"/></g></g></svg>