<?xml version="1.0" encoding="utf-8"?>
<!-- Generator: Adobe Illustrator 21.0.0, SVG Export Plug-In . SVG Version: 6.00 Build 0)  -->
<svg version="1.1"
	 id="svg8" inkscape:version="0.92.3 (2405546, 2018-03-11)" sodipodi:docname="HRnet_logo.svg" xmlns:cc="http://creativecommons.org/ns#" xmlns:dc="http://purl.org/dc/elements/1.1/" xmlns:inkscape="http://www.inkscape.org/namespaces/inkscape" xmlns:rdf="http://www.w3.org/1999/02/22-rdf-syntax-ns#" xmlns:sodipodi="http://sodipodi.sourceforge.net/DTD/sodipodi-0.dtd" xmlns:svg="http://www.w3.org/2000/svg"
	 xmlns="http://www.w3.org/2000/svg" xmlns:xlink="http://www.w3.org/1999/xlink" x="0px" y="0px" viewBox="0 0 500 525"
	 style="enable-background:new 0 0 500 525;" xml:space="preserve">
<style type="text/css">
	.st0{display:none;fill:#035500;}
	.st1{fill:#035500;}
</style>
<sodipodi:namedview  bordercolor="#666666" borderopacity="1.0" id="base" inkscape:current-layer="svg8" inkscape:cx="110.95874" inkscape:cy="250" inkscape:document-units="px" inkscape:pageopacity="0.0" inkscape:pageshadow="2" inkscape:showpageshadow="false" inkscape:window-height="1001" inkscape:window-maximized="1" inkscape:window-width="1920" inkscape:window-x="-9" inkscape:window-y="-9" inkscape:zoom="1" pagecolor="#ffffff" showborder="true" showgrid="false" units="px">
	</sodipodi:namedview>
<g id="layer1" transform="translate(0,-158.09374)" inkscape:groupmode="layer" inkscape:label="Calque 1">
	<g id="g826" transform="translate(-39.073673,126.05051)">
		<path id="path842" inkscape:connector-curvature="0" class="st0" d="M39.1,294.5V32h250h250v262.5V557h-250h-250V294.5z"/>
		<path id="path840" inkscape:connector-curvature="0" class="st1" d="M279.6,480.5c-9.7-4.1-15.3-13.1-15.3-24.6
			c0-22.1,24.4-33.1,41.4-18.7c17.4,14.6,8.1,43-14.5,44.4C287,481.9,281.7,481.3,279.6,480.5L279.6,480.5z M201.2,464.1
			c-5.1-11.2-4.4-19.1,2.6-33.4c4.4-8.9,9.1-15.4,17.6-24.1c12.2-12.5,17.3-14.8,19-8.4c2.1,7.7,0.9,29.5-2.2,40.9
			c-4.7,17.4-8.4,23.1-18.2,28.1C208,473.3,205.2,472.9,201.2,464.1L201.2,464.1z M357.8,467.2c-7.4-3.6-8.7-5.1-12.5-13.5
			c-6.1-13.6-9.7-32.6-8.4-45.7c0.5-5.9,1.4-11.3,1.8-12c2.3-3.7,7.9-0.6,18.3,9.9c8.3,8.4,12.8,14.7,17.7,24.7
			c7.7,15.6,8.2,21.4,2.7,32.5C372.9,472.3,369.5,472.9,357.8,467.2z M243.6,446.3c-0.4-1.1,0.1-4.1,1.1-6.5
			c1.2-2.9,1.9-12.7,2-27.5c0.1-12.7,0.6-23.8,1.3-24.8c1.6-2.6,21.6-8.8,24.6-7.6c3.4,1.3,3.2,9.9-0.5,24.7
			c-3.6,14-10.4,27.5-18.8,37C247,448.7,244.9,449.7,243.6,446.3L243.6,446.3z M329.8,446.8c-5.1-3-18-24.6-21.7-36.4
			c-4.8-15.2-5.7-27.7-2.3-29.9c2.8-1.8,23,3.9,25.9,7.4c1.2,1.4,1.2,5.4,0,14.1c-1.2,8.4-1.2,15.3-0.1,22.7
			c0.9,5.9,2,13.6,2.5,17.2C335.1,448.5,334.3,449.4,329.8,446.8L329.8,446.8z M152.5,426.9c-13.4-4.1-20.4-13.8-19.3-27.1
			c0.7-8.9,3.7-14.2,11-19.6c3.2-2.4,6.5-3.2,13.9-3.2c10.9,0,15.7,2.6,21.9,11.6c4.8,6.9,4.2,21.2-1,28.3
			C172.9,425.3,161.4,429.6,152.5,426.9L152.5,426.9z M414.4,426.8c-7.4-1.7-12.7-6-16.6-13.8c-4.4-8.6-4.3-14.6,0.1-23.1
			c9.6-18.3,36.3-18,45.2,0.6c3.8,7.9,4,13,0.9,20.6C438.7,423.7,427.4,429.7,414.4,426.8L414.4,426.8z M194.5,415.8
			c1.5-17.9,9.4-37.3,20.1-49.8c7.9-9.2,10.2-8.6,16.7,4.4c3,6,5.5,11.8,5.5,12.9c0,1.1-4,5.1-9,8.9c-9.5,7.3-18.5,17.4-25.2,28.1
			c-2.2,3.6-5.2,6.5-6.6,6.5C193.9,426.9,193.7,425.4,194.5,415.8z M376.1,420.6c-4.4-7.9-21.6-26.3-28.5-30.6
			c-6.5-4.1-6.6-7-0.2-19.8c6.6-13.3,9.5-13.7,17.7-2.8c11.2,14.9,20,38.7,20.1,54.5C385.2,429.2,380.5,428.5,376.1,420.6
			L376.1,420.6z M237.5,369.8c-3-6.1-6.2-11.8-6.9-12.6c-4.3-4.4,3-11.4,20-19.1c10.7-4.9,13.4-4.3,16.9,3.5
			c4.2,9.6,8.1,27.2,6.3,29c-1.4,1.4-26.7,10.4-29.3,10.4C243.7,380.9,240.6,375.9,237.5,369.8L237.5,369.8z M318.7,376.3
			c-6.7-2.3-12.9-5.3-13.7-6.7c-1.1-1.8-0.8-5.3,1-12.4c3.9-14.8,7.5-21.5,11.8-22.2c4.3-0.6,24.4,9.2,29.1,14.3l3.3,3.5l-7.4,13.6
			c-4,7.5-8.4,13.7-9.6,13.8C331.9,380.4,325.4,378.6,318.7,376.3L318.7,376.3z M282,369.3c-1.3-1.3-2.4-4.1-2.4-6.2
			c0-2.1-1.8-9.3-4-15.9c-2.2-6.7-3.6-13.2-3.1-14.5c0.7-1.9,3.8-2.4,15.9-2.3c8.2,0,16,0.7,17.2,1.4c1.9,1.2,1.6,3.2-1.8,13.4
			c-2.2,6.6-4.5,14.4-5.1,17.4c-0.6,3-1.7,6.2-2.6,7.3C293.9,372.5,284.9,372.1,282,369.3z M132.9,363.5c0-1.1,4-4.6,8.9-7.6
			c8.5-5.3,29.3-25.6,29.3-28.6c0-0.8,1.4-2.2,3.1-3.1c2.5-1.3,4.9-0.9,11.8,2.3c10.2,4.7,14.1,7.9,14.1,11.6
			c0,5.6-21.4,19-38.8,24.3C149.1,366.1,132.9,366.7,132.9,363.5L132.9,363.5z M418,362.7c-18.8-5.5-42.2-21.2-40-26.9
			c0.6-1.5,6.3-5.2,12.8-8.3l11.8-5.6l5.4,6.8c8.7,10.9,19,20.7,28.5,27c4.9,3.2,8.9,6.6,8.9,7.4C445.6,365.9,427.7,365.5,418,362.7
			L418,362.7z M97.7,359c-4.9-2-8.6-4.6-8.9-6.1c-0.3-1.5,1.4-6.8,3.7-12c3.6-7.9,5.2-9.9,11.2-12.9c14.8-7.4,22.9-9.2,41.8-9.3
			c25.4-0.1,26.1,2.2,7.2,20.7c-11.7,11.4-29.5,21.4-39.9,22.4C108.1,362.3,103.5,361.5,97.7,359L97.7,359z M449.2,356.1
			c-9.7-4.8-15.7-9.3-24.6-18.2c-6.5-6.5-11.9-13-11.9-14.4c0-9.2,42.7-6.4,61.7,4.1c4.9,2.7,7.4,5.7,11.3,13.3
			c5.9,11.7,5.1,14.2-5.8,18.7C469.2,363.9,463.5,363.2,449.2,356.1L449.2,356.1z M217.6,340.9l-4.5-4.7l3.5-5.7
			c1.9-3.1,5.9-10.7,9-16.8c4.1-8.4,6.2-11.1,8.6-11.1c4.3,0,22.5,18.4,22.5,22.8c0,2.6-1.9,4.2-8.4,7.1c-4.6,2-11.4,5.8-15.2,8.4
			c-3.7,2.6-7.8,4.7-8.9,4.7C223.1,345.6,220.1,343.5,217.6,340.9L217.6,340.9z M346.7,341.9c-3-2.1-9.9-6-15.3-8.8
			c-5.4-2.8-10-6.2-10.2-7.5c-0.7-3.6,19.4-23.1,23.1-22.6c2,0.3,4.9,4.1,8.6,11.2c3.1,5.9,7.1,13.2,9,16.3l3.4,5.6l-4,4.8
			C356.5,346.6,353.9,346.8,346.7,341.9L346.7,341.9z M193.3,324.1c-5.9-3.2-11.5-6.5-12.5-7.4c-1.3-1.2-0.6-5.2,2.8-15.8
			c2.5-7.8,5.3-14.7,6.1-15.2c4.2-2.6,32.5,6.4,35.1,11.1c1.2,2.3,0.4,5.4-3.8,14c-6.4,13.4-11,19.5-14.4,19.3
			C205.1,330,199.1,327.3,193.3,324.1L193.3,324.1z M364,322.5c-6.6-10.1-11.5-22.2-10.4-25.2c1.7-4.5,27.9-13.4,34.8-11.9
			c1.6,0.3,3.7,4.7,5.9,12.4c4.9,16.7,4.8,18.9-0.7,21.6c-2.5,1.3-7.9,4.2-12,6.6c-4.1,2.4-8.5,4.3-10,4.3
			C370.2,330.3,366.8,326.8,364,322.5L364,322.5z M259.4,316.8c-3.4-4.4-9.7-11-14-14.5s-8.4-6.9-9.1-7.5c-0.7-0.6-1.3-11.4-1.3-24
			V248l15.8-15.9l15.8-15.9l23.5-0.1l23.5-0.1l5.4,7.4c3,4.1,9.6,10.9,14.8,15.2l9.3,7.8l0.1,23.1l0.1,23.1L330.7,305
			c-6.9,6.7-13.5,13.9-14.8,15.9c-2.3,3.5-2.9,3.6-26.3,3.8l-23.9,0.2L259.4,316.8L259.4,316.8z M112.2,314.9
			c-1.6-2.6,11.5-13.5,24.1-19.8c12.3-6.2,31.4-11.4,38.9-10.5c3.2,0.4,4.5,1.4,4.9,4c0.7,4.8-5.6,23-8.4,24.6
			c-1.3,0.7-5.2,0.8-8.7,0.1c-9.9-1.9-25.2-1.5-36.9,1C113.2,316.9,113.4,316.9,112.2,314.9L112.2,314.9z M452.4,314.1
			c-9.7-2.2-27-2.7-36.2-0.9c-3.5,0.7-7.4,0.6-8.8-0.2c-4.2-2.4-10.9-21.9-9-26.7c1.9-5,29,0.3,45,8.8c15.7,8.4,28.4,21.7,20.1,21
			C462,316.1,457,315.2,452.4,314.1z M93.7,293.6c-11.6-5.3-18-18-14.6-29.2c3.6-11.9,13.7-20,25.1-20c8.2,0,18,6.1,22,13.7
			c7.5,14.2,2.4,28.6-12.5,35.5C106,297.2,101.6,297.2,93.7,293.6L93.7,293.6z M467.4,295.1c-11.4-3.6-18-13-18-25.3
			c0-8.9,3-14.8,10.2-20.3c4.7-3.6,7.1-4.3,15-4.3c8,0,10.3,0.7,15.2,4.4c13.7,10.5,13.4,32.4-0.5,41.7
			C483,295.3,473.5,297,467.4,295.1L467.4,295.1z M351.2,287.1c-2.9-1.8-3.7-28.8-0.9-32.5c1.9-2.6,2.7-2.5,16.5,1.8
			c8,2.5,16.4,5,18.8,5.5c4.1,0.8,4.3,1.3,3.8,8.1c-0.4,6.2-1,7.4-4.3,8.3c-2.1,0.6-10.1,3.1-17.9,5.5
			C359,286.5,352.4,287.9,351.2,287.1L351.2,287.1z M218.5,285.9c-2-1.2-11.7-3.9-24.9-6.9c-4.1-0.9-4.3-1.3-3.8-8.8l0.5-7.9
			l11.5-2.7c6.3-1.5,14.1-3.8,17.3-5.2c4.3-1.8,6.4-2,7.9-0.8c2.7,2.2,4.2,17.4,2.7,26.1c-1,5.8-1.8,7-5,7.3
			C222.5,287.1,219.7,286.7,218.5,285.9L218.5,285.9z M164.6,255.1c-17.8-3-38.3-13-48.4-23.5c-4.4-4.6-4.8-5.6-2.7-6.4
			c1.4-0.5,6.1,0,10.6,1.1c7,1.8,27.7,2.2,43.2,0.9c4.1-0.3,5,0.4,7.9,6.5c4.5,9.3,6.1,19.8,3.3,21.6
			C176.1,256.8,174.7,256.8,164.6,255.1L164.6,255.1z M399,254.5c-1.6-2-1.4-4.3,1.3-13c3.7-12.2,6.7-16.1,11.6-14.8
			c8.1,2,25.2,2.6,33.7,1.1c5-0.9,11.8-2.1,14.9-2.6c19.4-3.5-12.3,21.1-35.6,27.5C410.7,256.5,401.3,257.2,399,254.5L399,254.5z
			 M188.3,253.2c-0.8-1.1-2-4.3-2.7-7.3s-2.4-8.5-3.9-12.4c-1.5-3.9-2.2-7.8-1.6-8.9c1.4-2.2,24.1-14,27-14
			c4.7,0,20.1,27.7,18.2,32.6c-1.5,4-22.5,11.7-32.2,11.8C191.3,255.1,189.1,254.2,188.3,253.2z M367.7,250.9
			c-6.6-2.3-12.8-5.3-13.7-6.7c-3-4.7,11.7-33.5,17.1-33.5c3.9,0,27.7,12.8,27.7,14.9c0,1.9-5.3,19.9-7.7,26.1
			C389.3,256.4,383,256.1,367.7,250.9L367.7,250.9z M228.3,231.1c-1.5-3.9-5.3-11.2-8.5-16.2c-3.2-5-5.8-9.6-5.8-10.3
			c0-2.9,6.6-9.4,9.5-9.4c1.8,0,6.4,2,10.2,4.5c3.9,2.5,10.5,6.1,14.7,8.1s8.1,4.2,8.7,5c1.7,2.3-3.4,9.7-12.3,17.9
			C234.4,240.3,231.8,240.3,228.3,231.1z M331.4,227.8c-5.7-5.8-10.4-11.6-10.4-13.1c0-1.7,3-3.9,8.5-6.4c4.7-2.1,11.6-5.9,15.4-8.4
			c3.8-2.6,8.1-4.6,9.7-4.6c3.5,0,11.2,8.8,9.7,11.2c-0.6,1-3.2,5.2-5.9,9.5c-2.7,4.2-6.3,10.9-8,15c-2,4.6-4.2,7.3-5.8,7.3
			C343,238.2,337.1,233.5,331.4,227.8L331.4,227.8z M127.5,220.7c-13.6-3.2-25.8-8.1-29.5-12c-3.4-3.7-9.5-16.8-9.5-20.5
			c0-3.1,16.4-10.4,23-10.3c8.8,0.2,27.9,10.6,39.8,21.7c12.6,11.7,16.3,17.5,12.9,20.3C160.8,222.6,138.1,223.2,127.5,220.7
			L127.5,220.7z M418.8,221.6c-3-0.6-5.5-2.1-5.8-3.4c-1.3-6.8,21.4-27.4,39.4-35.6c12.1-5.6,18.2-5.8,28.7-1.2
			c9.5,4.2,10.1,7,4.3,19.6c-4.1,8.8-10.5,13.1-26.9,18C449.1,221.7,427,223.3,418.8,221.6L418.8,221.6z M168.7,209.5
			c-8.1-10.1-16.6-18-27.1-25.2c-4.9-3.3-8.6-6.9-8.3-7.9c1-3,9.8-2.9,22.4,0.3c15,3.8,26.9,9.4,36.9,17.3
			c10.2,8.1,9.8,11.2-2.4,17.8C177.8,218.4,175.6,218.2,168.7,209.5z M388,211.6c-13.3-7.1-13.4-9.5-0.6-18.7
			c12.8-9.2,27.4-15.3,42.5-17.8c10.5-1.7,12.2-1.7,14.3,0.5c2.2,2.2,1.7,2.9-6.2,8c-10.9,7-20.9,16.2-27.8,25.7
			C403.6,218.4,401.1,218.6,388,211.6z M274.5,209.5c-3.2-0.8-3.1-2.4,2.1-20.4c1.8-6.3,3.8-13.2,4.4-15.3c0.9-3.4,1.8-3.8,8.6-3.8
			h7.6l2.4,10.7c1.3,5.9,3.7,14.1,5.3,18.2c2.8,7.3,2.8,7.5,0,9.6C302.1,210.6,281.2,211.3,274.5,209.5L274.5,209.5z M246.8,200.6
			c-5.9-3-12.4-7.1-14.5-9.2l-3.8-3.8l6.6-12.7c3.7-7,7.2-13.3,7.9-14.1c0.8-0.9,5.3-0.2,11.6,1.8c5.7,1.8,11.8,3.7,13.6,4.2
			c6.2,1.7,6.9,4.2,4.4,15.6c-2.9,12.7-8.2,22.6-12.3,23.2C258.8,205.9,252.7,203.6,246.8,200.6L246.8,200.6z M311,198
			c-4.5-10-8.1-26.7-6.1-28.5c2.1-1.8,27.8-9.9,29.5-9.2c0.8,0.3,4.6,6.7,8.5,14.2c6.7,13,7,13.8,4.5,16.5
			c-3.3,3.7-25.9,15.1-29.8,15.1C315.5,206,313.6,203.7,311,198L311,198z M215,175c-12-14.9-19-31.9-20.5-49.6
			c-1.2-14,0.8-15.5,7.4-5.7c2.7,4,11.7,14.1,20.1,22.3l15.2,15l-2.6,6.5c-3.6,9.1-9.6,18-12.2,18C221.2,181.5,217.9,178.6,215,175
			L215,175z M352.7,178.8c-3.6-4-10.4-18.3-10.4-21.7c0-1.8,2.9-5.2,7.4-8.4c9.4-7,18.6-16.9,25.6-27.8c5.9-9.2,8.8-10.1,9.5-2.8
			c1.3,13.4-8.4,40.4-19.8,55.3C358.3,182.1,356.3,183,352.7,178.8L352.7,178.8z M147.2,161.7c-9.7-4.4-13.6-11.1-13.6-23.2
			s3.9-18.7,13.6-23.2c8.3-3.8,14.1-3.6,22.4,0.5c9.6,4.9,13.7,11.7,13.7,22.6s-4.1,17.8-13.7,22.6
			C161.4,165.3,155.5,165.5,147.2,161.7z M410.4,162.4c-6.6-2.9-12.4-9.9-14.6-17.3c-5.3-17.9,11.2-35.5,30-32
			c7.5,1.4,17.1,10.4,19.1,18.1C450.5,152.1,429.6,171,410.4,162.4z M262.8,159.4c-3.8-1.1-9.1-3.1-11.9-4.5l-5-2.6l0.9-17.2
			c0.9-15.6,0.1-25-3.3-38.3c-0.9-3.5-0.6-4.2,2-4.2c4,0,14.1,13.2,20.1,26.1c8.6,18.5,12.1,40,6.9,42c-1.3,0.5-2.5,0.9-2.7,0.8
			C269.8,161.3,266.6,160.4,262.8,159.4L262.8,159.4z M304.2,158.7c-2.8-5.3,2.1-27.7,9.1-41.6c5.6-11,16.2-24.5,19.3-24.5
			c2.6,0,2.7-1.1-1,23c-1,6.7-1,14.3,0.1,23c1.9,15.2,1.9,15.2-13.6,20C306.2,162.2,306.1,162.2,304.2,158.7L304.2,158.7z
			 M221.7,134.3c-8.5-8.7-13.3-15.2-17.7-24.2c-7.1-14.4-7.8-22.2-2.7-33.4c2.8-6.2,3.9-7.3,7.7-7.3c2.4,0,7.9,1.8,12.2,3.9
			c6.6,3.3,8.4,5.2,11.8,12.4c5.7,12.1,8.5,25.3,8.5,40.9c0,14.2-1.5,19.5-5.6,19.5C234.4,146.2,228.1,140.9,221.7,134.3z
			 M338.6,144.9c-0.5-0.7-1.3-6.1-1.8-12c-1.2-13.3,2.4-32.6,8.6-46.1c4-8.7,5.3-10,12.5-13.4c12.7-5.9,15.5-5.3,19.7,4.2
			c5,11.4,4.4,17.2-3.3,32.8C364.6,130.1,342.6,151.3,338.6,144.9z M276.6,106.2c-10-5.9-14.4-16.3-11.9-28.6
			c1.4-6.9,8.1-15,14.5-17.4c6.9-2.6,18-1.6,23.4,2.1c8.8,6,11.5,11,11.5,21.7c0,8.1-0.6,10.4-4.3,15.2c-2.4,3.1-6.3,6.7-8.7,7.9
			C294.7,110.4,283,110,276.6,106.2z"/>
		<path id="text848" inkscape:connector-curvature="0" class="st1" d="M175.7,502.4c-0.3,0-0.5,0.2-0.7,0.7l-12.2,27.1l-0.7,1.6
			c-0.3,0.7-0.8,1.4-1.3,2.1c-0.5,0.7-1,1-1.3,1.1l-0.9,0.3c-0.3,0.1-0.4,0.2-0.4,0.5c0,0.3,0.2,0.4,0.6,0.4c0.1,0,0.5,0,1.3-0.1
			c0.3,0,0.6,0,1.1,0c1,0,1.9,0,2.6,0l2.3,0.1c0.4,0,0.6,0,0.8,0c0.5,0,0.7-0.1,0.7-0.4c0-0.3-0.3-0.5-0.7-0.6
			c-1.1-0.2-1.8-0.5-2.2-0.9c-0.4-0.3-0.5-0.9-0.5-1.6c0-0.8,0.4-2,1-3.6l1.5-3.5c0.5-1.1,0.9-1.7,1.1-1.9c0.3-0.2,1-0.3,2.2-0.3
			h8.6c0.9,0,1.4,0.1,1.6,0.2c0.2,0.1,0.5,0.6,0.8,1.5l1.2,3.1c1,2.5,1.5,4.2,1.5,5c0,0.9-0.4,1.5-1.2,1.6l-0.7,0.2
			c-0.4,0.1-0.6,0.2-0.6,0.5c0,0.3,0.2,0.5,0.6,0.5c0.2,0,0.4,0,0.7-0.1c0.6-0.1,1.9-0.1,4.1-0.1c2.1,0,3.6,0,4.4,0.1
			c0.5,0,0.8,0,0.9,0c0.4,0,0.6-0.1,0.7-0.4c0-0.3-0.2-0.5-0.7-0.6c-1.5-0.3-2.5-0.6-3-1.1c-0.5-0.5-1.1-1.7-1.9-3.6l-0.5-1.3
			L176.3,503C176.2,502.6,176,502.4,175.7,502.4L175.7,502.4z M389.5,502.4c-0.3,0-0.5,0.2-0.7,0.7l-12.2,27.1l-0.7,1.6
			c-0.3,0.7-0.8,1.4-1.3,2.1c-0.5,0.7-1,1-1.3,1.1l-0.9,0.3c-0.3,0.1-0.4,0.2-0.4,0.5c0,0.3,0.2,0.4,0.6,0.4c0.1,0,0.5,0,1.3-0.1
			c0.3,0,0.6,0,1.1,0c1,0,1.9,0,2.6,0l2.3,0.1c0.4,0,0.6,0,0.8,0c0.5,0,0.7-0.1,0.7-0.4c0-0.3-0.3-0.5-0.7-0.6
			c-1.1-0.2-1.8-0.5-2.2-0.9c-0.4-0.3-0.5-0.9-0.5-1.6c0-0.8,0.3-2,1-3.6l1.5-3.5c0.5-1.1,0.9-1.7,1.1-1.9c0.3-0.2,1-0.3,2.2-0.3
			h8.6c0.9,0,1.4,0.1,1.6,0.2c0.2,0.1,0.5,0.6,0.8,1.5l1.2,3.1c1,2.5,1.4,4.2,1.4,5c0,0.9-0.4,1.5-1.2,1.6l-0.7,0.2
			c-0.4,0.1-0.6,0.2-0.6,0.5c0,0.3,0.2,0.5,0.6,0.5c0.2,0,0.4,0,0.7-0.1c0.6-0.1,1.9-0.1,4.1-0.1c2.1,0,3.6,0,4.4,0.1
			c0.5,0,0.8,0,0.9,0c0.4,0,0.6-0.1,0.7-0.4c0-0.3-0.2-0.5-0.7-0.6c-1.5-0.3-2.5-0.6-3-1.1c-0.5-0.5-1.1-1.7-1.9-3.6l-0.5-1.3
			L390.2,503C390,502.6,389.8,502.4,389.5,502.4L389.5,502.4z M252.4,503.1c-0.4,0-0.6,0.1-0.6,0.5c0,0.3,0.2,0.5,0.7,0.5
			c1.3,0.2,2.3,0.6,2.8,1.2c0.5,0.6,0.8,1.6,0.8,3v20.4c0,2.2-0.1,3.8-0.4,4.7c-0.3,0.9-0.7,1.4-1.4,1.6l-1.2,0.3
			c-0.4,0.1-0.6,0.3-0.6,0.6c0,0.3,0.2,0.5,0.6,0.5c0.2,0,0.7,0,1.5-0.1c0.6,0,1.1-0.1,1.5-0.1l1.6,0l2,0c1.5,0,2.4,0,2.9,0.1
			c0.6,0.1,1,0.1,1.2,0.1c0.5,0,0.7-0.2,0.7-0.5c0-0.3-0.3-0.6-0.9-0.6c-1.4-0.2-2.4-0.6-2.9-1.2s-0.8-1.8-0.8-3.5v-8.7
			c0-0.7,0.1-1.2,0.3-1.4c0.2-0.2,0.8-0.3,1.7-0.3h14c0.8,0,1.3,0.1,1.4,0.2c0.1,0.1,0.2,0.6,0.2,1.3v8.7l0,0.9
			c0,2.4-0.8,3.8-2.5,4.1c-0.5,0.1-0.8,0.3-0.8,0.5c0,0.3,0.2,0.5,0.6,0.5c0.1,0,0.7,0,1.6-0.1c0.5,0,0.9-0.1,1.1-0.1l1.8,0l1.8,0
			c1.2,0,2,0,2.4,0.1c0.5,0.1,0.9,0.1,1.2,0.1c0.5,0,0.7-0.2,0.7-0.6c0-0.3-0.3-0.4-0.8-0.5c-1.3-0.1-2.3-0.5-2.7-1.2
			c-0.5-0.6-0.7-1.8-0.7-3.5v-23c0-0.8,0.2-1.5,0.5-2.1c0.3-0.6,0.7-1,1.2-1.1l1-0.2c0.4-0.1,0.6-0.2,0.6-0.5c0-0.3-0.2-0.5-0.6-0.5
			c-0.2,0-0.5,0-0.9,0.1c-0.7,0.1-1.9,0.1-3.6,0.1c-1.2,0-2.3-0.1-3.3-0.2c-0.7-0.1-1.3-0.1-1.6-0.1c-0.4,0-0.6,0.1-0.6,0.4
			c0,0.3,0.2,0.5,0.7,0.6c1.1,0.3,1.9,0.7,2.3,1.4c0.4,0.7,0.6,1.8,0.6,3.5v8.1c0,0.4-0.1,0.7-0.3,0.9c-0.2,0.1-0.6,0.2-1.3,0.2h-14
			c-1,0-1.6-0.1-1.8-0.3c-0.2-0.2-0.3-0.7-0.3-1.6v-8.5c0-1.2,0.2-2,0.5-2.5c0.4-0.5,1.1-0.9,2.1-1.2c0.4-0.1,0.6-0.3,0.6-0.5
			c0-0.3-0.2-0.5-0.7-0.5c-0.2,0-0.6,0-1,0.1c-1,0.1-2,0.2-3.2,0.2c-1.7,0-3.1-0.1-4.3-0.2C253.2,503.2,252.7,503.1,252.4,503.1
			L252.4,503.1z M305.9,503.1c-0.4,0-0.6,0.1-0.6,0.5c0,0.3,0.2,0.5,0.7,0.5c1.3,0.2,2.3,0.6,2.8,1.2c0.5,0.6,0.8,1.6,0.8,3v20.4
			c0,2.2-0.1,3.8-0.4,4.7c-0.3,0.9-0.7,1.4-1.4,1.6l-1.2,0.3c-0.4,0.1-0.6,0.3-0.6,0.6c0,0.3,0.2,0.5,0.6,0.5c0.2,0,0.7,0,1.5-0.1
			c0.6,0,1.1-0.1,1.5-0.1l1.6,0l2,0c1.5,0,2.4,0,2.9,0.1c0.6,0.1,1,0.1,1.2,0.1c0.5,0,0.7-0.2,0.7-0.5c0-0.3-0.3-0.6-0.9-0.6
			c-1.4-0.2-2.4-0.6-2.9-1.2s-0.8-1.8-0.8-3.5v-8.7c0-0.7,0.1-1.2,0.3-1.4c0.2-0.2,0.8-0.3,1.7-0.3h14c0.8,0,1.3,0.1,1.4,0.2
			c0.1,0.1,0.2,0.6,0.2,1.3v8.7l0,0.9c0,2.4-0.8,3.8-2.5,4.1c-0.5,0.1-0.8,0.3-0.8,0.5c0,0.3,0.2,0.5,0.6,0.5c0.1,0,0.7,0,1.6-0.1
			c0.5,0,0.9-0.1,1.1-0.1l1.8,0l1.8,0c1.2,0,2,0,2.4,0.1c0.5,0.1,0.9,0.1,1.2,0.1c0.5,0,0.7-0.2,0.7-0.6c0-0.3-0.3-0.4-0.8-0.5
			c-1.3-0.1-2.3-0.5-2.7-1.2c-0.5-0.6-0.7-1.8-0.7-3.5v-23c0-0.8,0.2-1.5,0.5-2.1c0.3-0.6,0.7-1,1.2-1.1l1-0.2
			c0.4-0.1,0.6-0.2,0.6-0.5c0-0.3-0.2-0.5-0.6-0.5c-0.2,0-0.5,0-0.9,0.1c-0.7,0.1-1.9,0.1-3.6,0.1c-1.2,0-2.3-0.1-3.3-0.2
			c-0.7-0.1-1.3-0.1-1.6-0.1c-0.4,0-0.6,0.1-0.6,0.4c0,0.3,0.2,0.5,0.7,0.6c1.1,0.3,1.9,0.7,2.3,1.4c0.4,0.7,0.6,1.8,0.6,3.5v8.1
			c0,0.4-0.1,0.7-0.3,0.9c-0.2,0.1-0.6,0.2-1.3,0.2h-14c-1,0-1.6-0.1-1.8-0.3c-0.2-0.2-0.3-0.7-0.3-1.6v-8.5c0-1.2,0.2-2,0.5-2.5
			c0.4-0.5,1.1-0.9,2.1-1.2c0.4-0.1,0.6-0.3,0.6-0.5c0-0.3-0.2-0.5-0.7-0.5c-0.2,0-0.6,0-1,0.1c-1,0.1-2,0.2-3.2,0.2
			c-1.7,0-3.1-0.1-4.3-0.2C306.6,503.2,306.2,503.1,305.9,503.1L305.9,503.1z M466.3,503.1c-0.4,0-0.6,0.1-0.6,0.5
			c0,0.3,0.2,0.5,0.7,0.5c1.3,0.2,2.3,0.6,2.8,1.2c0.5,0.6,0.8,1.6,0.8,3v20.4c0,2.2-0.1,3.8-0.4,4.7c-0.3,0.9-0.7,1.4-1.4,1.6
			l-1.2,0.3c-0.4,0.1-0.6,0.3-0.6,0.6c0,0.3,0.2,0.5,0.6,0.5c0.2,0,0.7,0,1.5-0.1c0.6,0,1.1-0.1,1.5-0.1l1.6,0l2,0
			c1.5,0,2.4,0,2.9,0.1c0.6,0.1,1,0.1,1.2,0.1c0.5,0,0.7-0.2,0.7-0.5c0-0.3-0.3-0.6-0.9-0.6c-1.4-0.2-2.4-0.6-2.9-1.2
			c-0.5-0.7-0.8-1.8-0.8-3.5v-8.7c0-0.7,0.1-1.2,0.3-1.4c0.2-0.2,0.8-0.3,1.7-0.3h14c0.8,0,1.3,0.1,1.4,0.2c0.1,0.1,0.2,0.6,0.2,1.3
			v8.7l0,0.9c0,2.4-0.8,3.8-2.5,4.1c-0.5,0.1-0.8,0.3-0.8,0.5c0,0.3,0.2,0.5,0.6,0.5c0.1,0,0.7,0,1.6-0.1c0.5,0,0.9-0.1,1.1-0.1
			l1.8,0l1.8,0c1.2,0,2,0,2.4,0.1c0.5,0.1,0.9,0.1,1.2,0.1c0.5,0,0.7-0.2,0.7-0.6c0-0.3-0.3-0.4-0.8-0.5c-1.3-0.1-2.3-0.5-2.7-1.2
			c-0.5-0.6-0.7-1.8-0.7-3.5v-23c0-0.8,0.2-1.5,0.5-2.1c0.3-0.6,0.7-1,1.2-1.1l1-0.2c0.4-0.1,0.6-0.2,0.6-0.5c0-0.3-0.2-0.5-0.6-0.5
			c-0.2,0-0.5,0-0.9,0.1c-0.7,0.1-1.9,0.1-3.6,0.1c-1.2,0-2.3-0.1-3.3-0.2c-0.7-0.1-1.3-0.1-1.6-0.1c-0.4,0-0.6,0.1-0.6,0.4
			c0,0.3,0.2,0.5,0.7,0.6c1.1,0.3,1.9,0.7,2.3,1.4c0.4,0.7,0.6,1.8,0.6,3.5v8.1c0,0.4-0.1,0.7-0.3,0.9c-0.2,0.1-0.6,0.2-1.3,0.2h-14
			c-1,0-1.6-0.1-1.8-0.3c-0.2-0.2-0.3-0.7-0.3-1.6v-8.5c0-1.2,0.2-2,0.5-2.5c0.4-0.5,1.1-0.9,2.1-1.2c0.4-0.1,0.6-0.3,0.6-0.5
			c0-0.3-0.2-0.5-0.7-0.5c-0.2,0-0.6,0-1,0.1c-1,0.1-2,0.2-3.2,0.2c-1.7,0-3.1-0.1-4.3-0.2C467.1,503.2,466.6,503.1,466.3,503.1
			L466.3,503.1z M126.9,503.2c-0.2,0-0.6,0-1.1,0.1c-0.7,0.1-1.8,0.1-3.2,0.1c-1.2,0-2.2,0-2.9-0.1c-0.2,0-0.3,0-0.4,0
			c-0.5,0-0.7,0.2-0.7,0.5c0,0.3,0.4,0.6,1.1,0.8c1.3,0.3,2,0.8,2,1.5c0,0.8-0.9,3.6-2.7,8.3c-1.8,4.7-3.7,9.3-5.8,13.9
			c-0.3,0.6-0.5,1.1-0.6,1.3c-0.3,0.7-0.6,1.1-0.8,1.1c-0.2,0-0.6-0.6-1.1-1.9l-4.8-11.3l3.9-9.2c0.7-1.7,1.2-2.8,1.5-3.1
			c0.3-0.4,0.7-0.7,1.3-0.9c0.6-0.2,0.8-0.4,0.8-0.6c0-0.4-0.2-0.6-0.7-0.6c-0.2,0-0.5,0-1,0.1c-0.5,0.1-1.3,0.1-2.3,0.1
			c-0.9,0-1.8,0-2.4-0.1c-0.5,0-0.8,0-0.9,0c-0.6,0-0.8,0.2-0.8,0.5c0,0.4,0.4,0.6,1.1,0.8c1,0.2,1.6,0.6,1.6,1.4
			c0,1.2-0.9,3.9-2.7,7.9c-0.1,0.2-0.3,0.6-0.5,1.1l-2.5-5.9c-0.6-1.3-0.9-2.3-0.9-2.9c0-0.7,0.4-1.2,1.1-1.5
			c0.5-0.2,0.8-0.4,0.8-0.7c0-0.4-0.3-0.6-0.8-0.6c-0.2,0-0.5,0-1,0.1c-0.9,0.1-1.7,0.1-2.4,0.1l-4.6-0.1l-0.9,0c-0.6,0-1,0.2-1,0.5
			c0,0.4,0.6,0.7,1.9,0.9c0.9,0.1,1.5,0.4,1.9,0.9c0.4,0.5,1,1.5,1.7,3.2l2,4.6l2.1,4.9c0.1,0.2,0.3,0.6,0.6,1.4l-4.1,9.6l-0.1,0.3
			c-0.2,0.5-0.4,0.8-0.5,0.8c-0.1,0-0.2-0.2-0.4-0.5l-0.3-0.5c-0.1-0.2-0.3-0.6-0.5-1.1l-2.3-5.1c-0.5-1.1-1.3-3-2.4-5.8
			c-1.2-2.9-2-4.9-2.6-6.2c-1.2-2.6-1.7-4.4-1.7-5.1c0-0.6,0.5-1.1,1.5-1.4c0.3-0.1,0.5-0.3,0.5-0.6c0-0.4-0.2-0.6-0.6-0.6
			c-0.2,0-0.7,0-1.5,0.1l-2,0l-2.9,0c-1,0-1.8,0-2.4-0.1c-0.3,0-0.5,0-0.6,0c-0.5,0-0.7,0.2-0.7,0.6c0,0.3,0.2,0.5,0.5,0.6l1,0.2
			c1,0.2,1.8,0.8,2.4,1.6c0.6,0.8,1.4,2.3,2.3,4.5l0.6,1.6l9.8,23.5c0.5,1.2,1,1.8,1.4,1.9c0.3,0,0.6-0.3,0.9-1l5.9-14.2l5.9,13.8
			c0.3,0.8,0.7,1.1,1,1.1c0.4,0,0.8-0.4,1.2-1.3l0.4-0.7l0.5-1.2l1.1-2.6l1.9-4.5l2.9-6.4c0.6-1.4,1.5-3.5,2.7-6.3
			c1.1-2.7,2-4.6,2.5-5.7l1.3-2.8c0.3-0.7,0.8-1.2,1.4-1.4c0.5-0.2,0.7-0.4,0.7-0.7C127.4,503.4,127.2,503.2,126.9,503.2
			L126.9,503.2z M131.6,503.2c-0.7,0-1.1,0.2-1.1,0.7c0,0.3,0.2,0.5,0.7,0.5c1.4,0,2.4,0.4,2.9,1.2c0.5,0.8,0.8,2.3,0.8,4.6v20.1
			l0,1.5c0,1.9-0.6,3-1.7,3.3l-0.9,0.3c-0.4,0.1-0.6,0.3-0.6,0.6c0,0.3,0.3,0.5,0.8,0.5c0.2,0,0.6-0.1,1.2-0.2
			c1.1-0.2,3.1-0.3,5.9-0.3c2,0,4.5,0.1,7.5,0.4c0.8,0.1,1.4,0.1,1.9,0.1c2.1,0,3.9-0.9,5.3-2.6c1.2-1.4,1.7-2.7,1.7-3.7
			c0-0.4-0.1-0.6-0.4-0.6c-0.2,0-0.3,0.2-0.5,0.4c-1.8,2.8-5.8,4.2-12,4.2c-2,0-3.2-0.2-3.7-0.5c-0.5-0.3-0.7-1.2-0.7-2.5v-8.7
			l0-0.8c0-0.5,0.1-0.8,0.4-1c0.3-0.2,0.8-0.2,1.6-0.2h5.3c1.4,0,2.3,0.2,2.9,0.6c0.6,0.4,1,1.1,1.1,2.2l0.1,0.7
			c0.1,0.3,0.3,0.5,0.6,0.5c0.3,0,0.5-0.2,0.5-0.6c0-0.1,0-0.4,0-0.7c-0.1-1-0.1-1.9-0.1-2.9c0-1.3,0.1-2.7,0.2-4.2
			c0-0.2,0-0.4,0-0.5c0-0.4-0.2-0.6-0.5-0.6c-0.3,0-0.5,0.2-0.6,0.6c-0.2,1-0.4,1.7-0.7,2c-0.3,0.3-0.8,0.5-1.7,0.7
			c-1,0.2-2.3,0.3-3.9,0.3H140c-0.7,0-1.1-0.1-1.2-0.2c-0.1-0.2-0.2-0.6-0.2-1.3v-9.6c0-0.8,0.1-1.4,0.4-1.6
			c0.3-0.3,0.9-0.4,1.9-0.4h3.7c2.5,0,4.1,0.1,5.1,0.4c0.9,0.2,1.5,0.7,1.8,1.4c0.2,0.5,0.3,0.9,0.3,1.4v0.6c0,0.5,0.2,0.7,0.5,0.7
			c0.3,0,0.4-0.1,0.5-0.4c0.1-0.2,0.2-0.8,0.2-1.7l0.1-1.4c0.1-1,0.1-1.7,0.2-1.9c0-0.2,0.1-0.4,0.1-0.5c0-0.5-0.3-0.7-0.8-0.7
			c-0.2,0-0.5,0-0.9,0.1c-0.2,0-0.8,0.1-1.7,0.1l-3.4,0.2c-1.5,0.1-3.2,0.1-5.1,0.1c-3.2,0-5.9-0.1-8.2-0.4
			C132.6,503.2,132,503.2,131.6,503.2L131.6,503.2z M345.5,503.2c-0.7,0-1.1,0.2-1.1,0.7c0,0.3,0.2,0.5,0.7,0.5
			c1.4,0,2.4,0.4,2.9,1.2c0.5,0.8,0.8,2.3,0.8,4.6v20.1l0,1.5c0,1.9-0.6,3-1.7,3.3l-0.9,0.3c-0.4,0.1-0.6,0.3-0.6,0.6
			c0,0.3,0.3,0.5,0.8,0.5c0.2,0,0.6-0.1,1.2-0.2c1.1-0.2,3.1-0.3,5.9-0.3c2,0,4.5,0.1,7.5,0.4c0.8,0.1,1.4,0.1,1.9,0.1
			c2.1,0,3.9-0.9,5.3-2.6c1.2-1.4,1.7-2.7,1.7-3.7c0-0.4-0.1-0.6-0.4-0.6c-0.2,0-0.3,0.2-0.5,0.4c-1.8,2.8-5.8,4.2-12,4.2
			c-2,0-3.2-0.2-3.7-0.5c-0.5-0.3-0.7-1.2-0.7-2.5v-8.7l0-0.8c0-0.5,0.1-0.8,0.4-1c0.3-0.2,0.8-0.2,1.6-0.2h5.2
			c1.4,0,2.3,0.2,2.9,0.6c0.6,0.4,1,1.1,1.1,2.2l0.1,0.7c0.1,0.3,0.3,0.5,0.6,0.5c0.3,0,0.5-0.2,0.5-0.6c0-0.1,0-0.4,0-0.7
			c-0.1-1-0.1-1.9-0.1-2.9c0-1.3,0.1-2.7,0.2-4.2c0-0.2,0-0.4,0-0.5c0-0.4-0.1-0.6-0.5-0.6c-0.3,0-0.5,0.2-0.6,0.6
			c-0.2,1-0.4,1.7-0.7,2c-0.3,0.3-0.8,0.5-1.7,0.7c-1,0.2-2.3,0.3-3.9,0.3h-3.7c-0.7,0-1.1-0.1-1.2-0.2c-0.1-0.2-0.2-0.6-0.2-1.3
			v-9.6c0-0.8,0.1-1.4,0.4-1.6c0.3-0.3,0.9-0.4,1.9-0.4h3.7c2.5,0,4.1,0.1,5.1,0.4c0.9,0.2,1.5,0.7,1.8,1.4c0.2,0.5,0.3,0.9,0.3,1.4
			v0.6c0,0.5,0.1,0.7,0.5,0.7c0.3,0,0.4-0.1,0.5-0.4c0.1-0.2,0.2-0.8,0.2-1.7l0.1-1.4c0.1-1,0.1-1.7,0.2-1.9c0-0.2,0.1-0.4,0.1-0.5
			c0-0.5-0.3-0.7-0.8-0.7c-0.2,0-0.5,0-0.9,0.1c-0.2,0-0.8,0.1-1.7,0.1l-3.4,0.2c-1.5,0.1-3.2,0.1-5.1,0.1c-3.2,0-5.9-0.1-8.2-0.4
			C346.4,503.2,345.9,503.2,345.5,503.2L345.5,503.2z M196.4,503.4c-0.5,0-0.8,0.2-0.8,0.5c0,0.2,0.2,0.4,0.6,0.5l1.1,0.2
			c1.7,0.3,2.6,1.6,2.6,3.7v21.2l0,1.1c0,1.5-0.2,2.6-0.6,3.3c-0.4,0.6-1.1,1.1-2.2,1.4c-0.4,0.1-0.6,0.3-0.6,0.6
			c0,0.3,0.2,0.4,0.6,0.4c0.3,0,0.8-0.1,1.3-0.1c1.3-0.2,2.9-0.3,4.9-0.3c1.7,0,3.3,0.1,4.8,0.2l2.6,0.2c0.7,0,1.3,0.1,1.8,0.1
			c3.1,0,5.3-0.9,6.6-2.6c1-1.3,1.5-2.4,1.5-3.4c0-0.3-0.1-0.5-0.4-0.5c-0.2,0-0.4,0.2-0.7,0.6c-0.6,1.2-2,2.1-4.2,2.8
			c-2.2,0.7-4.7,1-7.7,1c-2,0-3.2-0.2-3.6-0.5c-0.4-0.3-0.5-1.5-0.5-3.4l0-0.8v-20.6c0-2.5,0.7-3.9,2.1-4.3l0.8-0.2
			c0.5-0.1,0.7-0.3,0.7-0.7c0-0.2-0.2-0.4-0.6-0.4c-0.1,0-0.4,0-1,0c-1.2,0.1-2.5,0.1-4,0.1c-1.3,0-2.6,0-3.6-0.1
			C197.3,503.4,196.8,503.4,196.4,503.4L196.4,503.4z M410.3,503.4c-0.5,0-0.8,0.2-0.8,0.5c0,0.2,0.2,0.4,0.6,0.5l1.1,0.2
			c1.7,0.3,2.6,1.6,2.6,3.7v21.2l0,1.1c0,1.5-0.2,2.6-0.6,3.3c-0.4,0.6-1.1,1.1-2.2,1.4c-0.4,0.1-0.6,0.3-0.6,0.6
			c0,0.3,0.2,0.4,0.6,0.4c0.3,0,0.8-0.1,1.3-0.1c1.3-0.2,2.9-0.3,4.9-0.3c1.7,0,3.3,0.1,4.8,0.2l2.6,0.2c0.7,0,1.3,0.1,1.8,0.1
			c3.1,0,5.3-0.9,6.6-2.6c1-1.3,1.5-2.4,1.5-3.4c0-0.3-0.1-0.5-0.4-0.5c-0.2,0-0.4,0.2-0.7,0.6c-0.6,1.2-2,2.1-4.2,2.8
			c-2.2,0.7-4.7,1-7.7,1c-2,0-3.2-0.2-3.6-0.5c-0.4-0.3-0.5-1.5-0.5-3.4l0-0.8v-20.6c0-2.5,0.7-3.9,2.1-4.3l0.8-0.2
			c0.5-0.1,0.7-0.3,0.7-0.7c0-0.2-0.2-0.4-0.6-0.4c-0.1,0-0.4,0-1,0c-1.2,0.1-2.5,0.1-4,0.1c-1.3,0-2.6,0-3.6-0.1
			C411.1,503.4,410.6,503.4,410.3,503.4L410.3,503.4z M220.3,503.6c-0.5,0-0.9,0.1-1.1,0.4c-0.2,0.2-0.2,0.7-0.2,1.4
			c0,0.7-0.1,1.7-0.4,2.8c-0.2,0.9-0.3,1.5-0.3,1.8c0,0.4,0.1,0.6,0.4,0.6c0.3,0,0.5-0.3,0.6-0.9c0.3-1.4,0.8-2.4,1.3-2.9
			c0.6-0.5,1.5-0.8,2.8-0.8h6.3c0.6,0,1,0.1,1.1,0.2c0.2,0.2,0.3,0.5,0.3,1.1l0,0.6v23.5c0,1.3-0.2,2.3-0.6,2.8
			c-0.4,0.5-1.3,0.8-2.5,1c-0.5,0.1-0.8,0.2-0.8,0.5c0,0.3,0.2,0.5,0.7,0.5c0.2,0,0.7,0,1.6-0.1c0.5,0,1-0.1,1.7-0.1l1.9,0l1.7,0
			c1.1,0,1.8,0,2.1,0.1c0.6,0.1,1,0.1,1.2,0.1c0.4,0,0.7-0.2,0.7-0.5c0-0.3-0.3-0.5-0.8-0.5c-2-0.3-3-1.5-3.1-3.3l0-0.9v-23.3
			c0-0.7,0.1-1.2,0.3-1.4c0.2-0.2,0.6-0.3,1.3-0.3h6.7c1.3,0,2.2,0.2,2.7,0.5c0.5,0.3,0.8,1.1,1,2.2c0.1,0.5,0.3,0.8,0.6,0.7
			c0.3,0,0.5-0.3,0.5-0.8c0-0.2-0.1-0.6-0.1-1.2c-0.1-0.4-0.1-1.1-0.1-2c0-0.9-0.1-1.5-0.3-1.7c-0.2-0.2-0.7-0.3-1.6-0.3
			L220.3,503.6z M434.2,503.6c-0.5,0-0.9,0.1-1.1,0.4c-0.2,0.2-0.2,0.7-0.2,1.4c0,0.7-0.1,1.7-0.4,2.8c-0.2,0.9-0.3,1.5-0.3,1.8
			c0,0.4,0.1,0.6,0.4,0.6c0.3,0,0.5-0.3,0.6-0.9c0.3-1.4,0.8-2.4,1.3-2.9c0.6-0.5,1.5-0.8,2.8-0.8h6.3c0.6,0,1,0.1,1.1,0.2
			c0.2,0.2,0.3,0.5,0.3,1.1l0,0.6v23.5c0,1.3-0.2,2.3-0.6,2.8c-0.4,0.5-1.3,0.8-2.5,1c-0.5,0.1-0.8,0.2-0.8,0.5
			c0,0.3,0.2,0.5,0.7,0.5c0.2,0,0.7,0,1.6-0.1c0.5,0,1-0.1,1.7-0.1l1.9,0l1.7,0c1.1,0,1.8,0,2.1,0.1c0.6,0.1,1,0.1,1.2,0.1
			c0.4,0,0.7-0.2,0.7-0.5c0-0.3-0.3-0.5-0.8-0.5c-2-0.3-3-1.5-3.1-3.3l0-0.9v-23.3c0-0.7,0.1-1.2,0.3-1.4c0.2-0.2,0.6-0.3,1.3-0.3
			h6.7c1.3,0,2.2,0.2,2.7,0.5c0.5,0.3,0.8,1.1,1,2.2c0.1,0.5,0.3,0.8,0.6,0.7c0.3,0,0.5-0.3,0.5-0.8c0-0.2-0.1-0.6-0.1-1.2
			c-0.1-0.4-0.1-1.1-0.1-2c0-0.9-0.1-1.5-0.3-1.7c-0.2-0.2-0.7-0.3-1.6-0.3L434.2,503.6z M174.4,509.1c0.2,0,0.4,0.3,0.6,0.8
			l0.2,0.5l3.7,9.4l0.1,0.4c0.1,0.3,0.1,0.4,0.1,0.5c0,0.4-0.4,0.6-1.2,0.6h-7.2l-0.6,0c-0.7,0-1.1-0.2-1.1-0.6
			c0-0.1,0.1-0.4,0.3-0.9l4.6-10.3C174.2,509.2,174.3,509.1,174.4,509.1L174.4,509.1z M388.3,509.1c0.2,0,0.4,0.3,0.6,0.8l0.2,0.5
			l3.7,9.4l0.1,0.4c0.1,0.3,0.1,0.4,0.1,0.5c0,0.4-0.4,0.6-1.2,0.6h-7.2l-0.6,0c-0.7,0-1.1-0.2-1.1-0.6c0-0.1,0.1-0.4,0.3-0.9
			l4.6-10.3C388,509.2,388.1,509.1,388.3,509.1L388.3,509.1z"/>
	</g>
</g>
</svg>
