<?xml version="1.0" encoding="utf-8"?>
<!-- Generator: Adobe Illustrator 21.0.0, SVG Export Plug-In . SVG Version: 6.00 Build 0)  -->
<svg version="1.1"
	 id="svg8" inkscape:version="0.92.3 (2405546, 2018-03-11)" sodipodi:docname="HRnet_logo-brand.svg" xmlns:cc="http://creativecommons.org/ns#" xmlns:dc="http://purl.org/dc/elements/1.1/" xmlns:inkscape="http://www.inkscape.org/namespaces/inkscape" xmlns:rdf="http://www.w3.org/1999/02/22-rdf-syntax-ns#" xmlns:sodipodi="http://sodipodi.sourceforge.net/DTD/sodipodi-0.dtd" xmlns:svg="http://www.w3.org/2000/svg"
	 xmlns="http://www.w3.org/2000/svg" xmlns:xlink="http://www.w3.org/1999/xlink" x="0px" y="0px" viewBox="0 0 450 75"
	 style="enable-background:new 0 0 450 75;" xml:space="preserve">
<style type="text/css">
	.st0{fill:#00550E;}
</style>
<sodipodi:namedview  bordercolor="#666666" borderopacity="1.0" id="base" inkscape:current-layer="g826" inkscape:cx="-84.54126" inkscape:cy="250" inkscape:document-units="px" inkscape:pageopacity="0.0" inkscape:pageshadow="2" inkscape:showpageshadow="false" inkscape:window-height="1001" inkscape:window-maximized="1" inkscape:window-width="1920" inkscape:window-x="-9" inkscape:window-y="-9" inkscape:zoom="1" pagecolor="#ffffff" showborder="true" showgrid="false" units="px">
	</sodipodi:namedview>
<g id="layer1" transform="translate(0,-277.15623)" inkscape:groupmode="layer" inkscape:label="Calque 1">
	<g id="g826" transform="translate(-39.073673,126.05051)">
		<path id="text848" inkscape:connector-curvature="0" class="st0" d="M150.7,171.4c-0.3,0-0.5,0.2-0.7,0.7l-12.2,27.1l-0.7,1.6
			c-0.3,0.7-0.8,1.4-1.3,2.1c-0.5,0.7-1,1-1.3,1.1l-0.9,0.3c-0.3,0.1-0.4,0.2-0.4,0.5c0,0.3,0.2,0.4,0.6,0.4c0.1,0,0.5,0,1.3-0.1
			c0.3,0,0.6,0,1.1,0c1,0,1.9,0,2.6,0l2.3,0.1c0.4,0,0.6,0,0.8,0c0.5,0,0.7-0.1,0.7-0.4c0-0.3-0.3-0.5-0.7-0.6
			c-1.1-0.2-1.8-0.5-2.2-0.9c-0.4-0.3-0.5-0.9-0.5-1.6c0-0.8,0.4-2,1-3.6l1.5-3.5c0.5-1.1,0.9-1.7,1.1-1.9c0.3-0.2,1-0.3,2.2-0.3
			h8.6c0.9,0,1.4,0.1,1.6,0.2c0.2,0.1,0.5,0.6,0.8,1.5l1.2,3.1c1,2.5,1.5,4.2,1.5,5c0,0.9-0.4,1.5-1.2,1.6l-0.7,0.2
			c-0.4,0.1-0.6,0.2-0.6,0.5c0,0.3,0.2,0.5,0.6,0.5c0.2,0,0.4,0,0.7-0.1c0.6-0.1,1.9-0.1,4.1-0.1c2.1,0,3.6,0,4.4,0.1
			c0.5,0,0.8,0,0.9,0c0.4,0,0.6-0.1,0.7-0.4c0-0.3-0.2-0.5-0.7-0.6c-1.5-0.3-2.5-0.6-3-1.1c-0.5-0.5-1.1-1.7-1.9-3.6l-0.5-1.3
			l-10.2-26.1C151.2,171.6,151,171.4,150.7,171.4L150.7,171.4z M364.5,171.4c-0.3,0-0.5,0.2-0.7,0.7l-12.2,27.1l-0.7,1.6
			c-0.3,0.7-0.8,1.4-1.3,2.1c-0.5,0.7-1,1-1.3,1.1l-0.9,0.3c-0.3,0.1-0.4,0.2-0.4,0.5c0,0.3,0.2,0.4,0.6,0.4c0.1,0,0.5,0,1.3-0.1
			c0.3,0,0.6,0,1.1,0c1,0,1.9,0,2.6,0l2.3,0.1c0.4,0,0.6,0,0.8,0c0.5,0,0.7-0.1,0.7-0.4c0-0.3-0.3-0.5-0.7-0.6
			c-1.1-0.2-1.8-0.5-2.2-0.9c-0.4-0.3-0.5-0.9-0.5-1.6c0-0.8,0.3-2,1-3.6l1.5-3.5c0.5-1.1,0.9-1.7,1.1-1.9c0.3-0.2,1-0.3,2.2-0.3
			h8.6c0.9,0,1.4,0.1,1.6,0.2c0.2,0.1,0.5,0.6,0.8,1.5l1.2,3.1c1,2.5,1.4,4.2,1.4,5c0,0.9-0.4,1.5-1.2,1.6l-0.7,0.2
			c-0.4,0.1-0.6,0.2-0.6,0.5c0,0.3,0.2,0.5,0.6,0.5c0.2,0,0.4,0,0.7-0.1c0.6-0.1,1.9-0.1,4.1-0.1c2.1,0,3.6,0,4.4,0.1
			c0.5,0,0.8,0,0.9,0c0.4,0,0.6-0.1,0.7-0.4c0-0.3-0.2-0.5-0.7-0.6c-1.5-0.3-2.5-0.6-3-1.1c-0.5-0.5-1.1-1.7-1.9-3.6l-0.5-1.3
			l-10.2-26.1C365,171.6,364.8,171.4,364.5,171.4L364.5,171.4z M227.4,172.2c-0.4,0-0.6,0.1-0.6,0.5c0,0.3,0.2,0.5,0.7,0.5
			c1.3,0.2,2.3,0.6,2.8,1.2c0.5,0.6,0.8,1.6,0.8,3v20.4c0,2.2-0.1,3.8-0.4,4.7c-0.3,0.9-0.7,1.4-1.4,1.6l-1.2,0.3
			c-0.4,0.1-0.6,0.3-0.6,0.6c0,0.3,0.2,0.5,0.6,0.5c0.2,0,0.7,0,1.5-0.1c0.6,0,1.1-0.1,1.5-0.1l1.6,0l2,0c1.5,0,2.4,0,2.9,0.1
			c0.6,0.1,1,0.1,1.2,0.1c0.5,0,0.7-0.2,0.7-0.5c0-0.3-0.3-0.6-0.9-0.6c-1.4-0.2-2.4-0.6-2.9-1.2s-0.8-1.8-0.8-3.5v-8.7
			c0-0.7,0.1-1.2,0.3-1.4c0.2-0.2,0.8-0.3,1.7-0.3h14c0.8,0,1.3,0.1,1.4,0.2c0.1,0.1,0.2,0.6,0.2,1.3v8.7l0,0.9
			c0,2.4-0.8,3.8-2.5,4.1c-0.5,0.1-0.8,0.3-0.8,0.5c0,0.3,0.2,0.5,0.6,0.5c0.1,0,0.7,0,1.6-0.1c0.5,0,0.9-0.1,1.1-0.1l1.8,0l1.8,0
			c1.2,0,2,0,2.4,0.1c0.5,0.1,0.9,0.1,1.2,0.1c0.5,0,0.7-0.2,0.7-0.6c0-0.3-0.3-0.4-0.8-0.5c-1.3-0.1-2.3-0.5-2.7-1.2
			c-0.5-0.6-0.7-1.8-0.7-3.5v-23c0-0.8,0.2-1.5,0.5-2.1c0.3-0.6,0.7-1,1.2-1.1l1-0.2c0.4-0.1,0.6-0.2,0.6-0.5c0-0.3-0.2-0.5-0.6-0.5
			c-0.2,0-0.5,0-0.9,0.1c-0.7,0.1-1.9,0.1-3.6,0.1c-1.2,0-2.3-0.1-3.3-0.2c-0.7-0.1-1.3-0.1-1.6-0.1c-0.4,0-0.6,0.1-0.6,0.4
			c0,0.3,0.2,0.5,0.7,0.6c1.1,0.3,1.9,0.7,2.3,1.4c0.4,0.7,0.6,1.8,0.6,3.5v8.1c0,0.4-0.1,0.7-0.3,0.9c-0.2,0.1-0.6,0.2-1.3,0.2h-14
			c-1,0-1.6-0.1-1.8-0.3c-0.2-0.2-0.3-0.7-0.3-1.6V177c0-1.2,0.2-2,0.5-2.5c0.4-0.5,1.1-0.9,2.1-1.2c0.4-0.1,0.6-0.3,0.6-0.5
			c0-0.3-0.2-0.5-0.7-0.5c-0.2,0-0.6,0-1,0.1c-1,0.1-2,0.2-3.2,0.2c-1.7,0-3.1-0.1-4.3-0.2C228.2,172.2,227.7,172.2,227.4,172.2
			L227.4,172.2z M280.9,172.2c-0.4,0-0.6,0.1-0.6,0.5c0,0.3,0.2,0.5,0.7,0.5c1.3,0.2,2.3,0.6,2.8,1.2c0.5,0.6,0.8,1.6,0.8,3v20.4
			c0,2.2-0.1,3.8-0.4,4.7c-0.3,0.9-0.7,1.4-1.4,1.6l-1.2,0.3c-0.4,0.1-0.6,0.3-0.6,0.6c0,0.3,0.2,0.5,0.6,0.5c0.2,0,0.7,0,1.5-0.1
			c0.6,0,1.1-0.1,1.5-0.1l1.6,0l2,0c1.5,0,2.4,0,2.9,0.1c0.6,0.1,1,0.1,1.2,0.1c0.5,0,0.7-0.2,0.7-0.5c0-0.3-0.3-0.6-0.9-0.6
			c-1.4-0.2-2.4-0.6-2.9-1.2s-0.8-1.8-0.8-3.5v-8.7c0-0.7,0.1-1.2,0.3-1.4c0.2-0.2,0.8-0.3,1.7-0.3h14c0.8,0,1.3,0.1,1.4,0.2
			c0.1,0.1,0.2,0.6,0.2,1.3v8.7l0,0.9c0,2.4-0.8,3.8-2.5,4.1c-0.5,0.1-0.8,0.3-0.8,0.5c0,0.3,0.2,0.5,0.6,0.5c0.1,0,0.7,0,1.6-0.1
			c0.5,0,0.9-0.1,1.1-0.1l1.8,0l1.8,0c1.2,0,2,0,2.4,0.1c0.5,0.1,0.9,0.1,1.2,0.1c0.5,0,0.7-0.2,0.7-0.6c0-0.3-0.3-0.4-0.8-0.5
			c-1.3-0.1-2.3-0.5-2.7-1.2c-0.5-0.6-0.7-1.8-0.7-3.5v-23c0-0.8,0.2-1.5,0.5-2.1c0.3-0.6,0.7-1,1.2-1.1l1-0.2
			c0.4-0.1,0.6-0.2,0.6-0.5c0-0.3-0.2-0.5-0.6-0.5c-0.2,0-0.5,0-0.9,0.1c-0.7,0.1-1.9,0.1-3.6,0.1c-1.2,0-2.3-0.1-3.3-0.2
			c-0.7-0.1-1.3-0.1-1.6-0.1c-0.4,0-0.6,0.1-0.6,0.4c0,0.3,0.2,0.5,0.7,0.6c1.1,0.3,1.9,0.7,2.3,1.4c0.4,0.7,0.6,1.8,0.6,3.5v8.1
			c0,0.4-0.1,0.7-0.3,0.9c-0.2,0.1-0.6,0.2-1.3,0.2h-14c-1,0-1.6-0.1-1.8-0.3c-0.2-0.2-0.3-0.7-0.3-1.6V177c0-1.2,0.2-2,0.5-2.5
			c0.4-0.5,1.1-0.9,2.1-1.2c0.4-0.1,0.6-0.3,0.6-0.5c0-0.3-0.2-0.5-0.7-0.5c-0.2,0-0.6,0-1,0.1c-1,0.1-2,0.2-3.2,0.2
			c-1.7,0-3.1-0.1-4.3-0.2C281.6,172.2,281.2,172.2,280.9,172.2L280.9,172.2z M441.3,172.2c-0.4,0-0.6,0.1-0.6,0.5
			c0,0.3,0.2,0.5,0.7,0.5c1.3,0.2,2.3,0.6,2.8,1.2c0.5,0.6,0.8,1.6,0.8,3v20.4c0,2.2-0.1,3.8-0.4,4.7c-0.3,0.9-0.7,1.4-1.4,1.6
			l-1.2,0.3c-0.4,0.1-0.6,0.3-0.6,0.6c0,0.3,0.2,0.5,0.6,0.5c0.2,0,0.7,0,1.5-0.1c0.6,0,1.1-0.1,1.5-0.1l1.6,0l2,0
			c1.5,0,2.4,0,2.9,0.1c0.6,0.1,1,0.1,1.2,0.1c0.5,0,0.7-0.2,0.7-0.5c0-0.3-0.3-0.6-0.9-0.6c-1.4-0.2-2.4-0.6-2.9-1.2
			c-0.5-0.7-0.8-1.8-0.8-3.5v-8.7c0-0.7,0.1-1.2,0.3-1.4c0.2-0.2,0.8-0.3,1.7-0.3h14c0.8,0,1.3,0.1,1.4,0.2c0.1,0.1,0.2,0.6,0.2,1.3
			v8.7l0,0.9c0,2.4-0.8,3.8-2.5,4.1c-0.5,0.1-0.8,0.3-0.8,0.5c0,0.3,0.2,0.5,0.6,0.5c0.1,0,0.7,0,1.6-0.1c0.5,0,0.9-0.1,1.1-0.1
			l1.8,0l1.8,0c1.2,0,2,0,2.4,0.1c0.5,0.1,0.9,0.1,1.2,0.1c0.5,0,0.7-0.2,0.7-0.6c0-0.3-0.3-0.4-0.8-0.5c-1.3-0.1-2.3-0.5-2.7-1.2
			c-0.5-0.6-0.7-1.8-0.7-3.5v-23c0-0.8,0.2-1.5,0.5-2.1c0.3-0.6,0.7-1,1.2-1.1l1-0.2c0.4-0.1,0.6-0.2,0.6-0.5c0-0.3-0.2-0.5-0.6-0.5
			c-0.2,0-0.5,0-0.9,0.1c-0.7,0.1-1.9,0.1-3.6,0.1c-1.2,0-2.3-0.1-3.3-0.2c-0.7-0.1-1.3-0.1-1.6-0.1c-0.4,0-0.6,0.1-0.6,0.4
			c0,0.3,0.2,0.5,0.7,0.6c1.1,0.3,1.9,0.7,2.3,1.4c0.4,0.7,0.6,1.8,0.6,3.5v8.1c0,0.4-0.1,0.7-0.3,0.9c-0.2,0.1-0.6,0.2-1.3,0.2h-14
			c-1,0-1.6-0.1-1.8-0.3c-0.2-0.2-0.3-0.7-0.3-1.6V177c0-1.2,0.2-2,0.5-2.5c0.4-0.5,1.1-0.9,2.1-1.2c0.4-0.1,0.6-0.3,0.6-0.5
			c0-0.3-0.2-0.5-0.7-0.5c-0.2,0-0.6,0-1,0.1c-1,0.1-2,0.2-3.2,0.2c-1.7,0-3.1-0.1-4.3-0.2C442.1,172.2,441.6,172.2,441.3,172.2
			L441.3,172.2z M101.9,172.2c-0.2,0-0.6,0-1.1,0.1c-0.7,0.1-1.8,0.1-3.2,0.1c-1.2,0-2.2,0-2.9-0.1c-0.2,0-0.3,0-0.4,0
			c-0.5,0-0.7,0.2-0.7,0.5c0,0.3,0.4,0.6,1.1,0.8c1.3,0.3,2,0.8,2,1.5c0,0.8-0.9,3.6-2.7,8.3c-1.8,4.7-3.7,9.3-5.8,13.9
			c-0.3,0.6-0.5,1.1-0.6,1.3c-0.3,0.7-0.6,1.1-0.8,1.1c-0.2,0-0.6-0.6-1.1-1.9l-4.8-11.3l3.9-9.2c0.7-1.7,1.2-2.8,1.5-3.1
			c0.3-0.4,0.7-0.7,1.3-0.9c0.6-0.2,0.8-0.4,0.8-0.6c0-0.4-0.2-0.6-0.7-0.6c-0.2,0-0.5,0-1,0.1c-0.5,0.1-1.3,0.1-2.3,0.1
			c-0.9,0-1.8,0-2.4-0.1c-0.5,0-0.8,0-0.9,0c-0.6,0-0.8,0.2-0.8,0.5c0,0.4,0.4,0.6,1.1,0.8c1,0.2,1.6,0.6,1.6,1.4
			c0,1.2-0.9,3.9-2.7,7.9c-0.1,0.2-0.3,0.6-0.5,1.1l-2.5-5.9c-0.6-1.3-0.9-2.3-0.9-2.9c0-0.7,0.4-1.2,1.1-1.5
			c0.5-0.2,0.8-0.4,0.8-0.7c0-0.4-0.3-0.6-0.8-0.6c-0.2,0-0.5,0-1,0.1c-0.9,0.1-1.7,0.1-2.4,0.1l-4.6-0.1l-0.9,0c-0.6,0-1,0.2-1,0.5
			c0,0.4,0.6,0.7,1.9,0.9c0.9,0.1,1.5,0.4,1.9,0.9c0.4,0.5,1,1.5,1.7,3.2l2,4.6l2.1,4.9c0.1,0.2,0.3,0.6,0.6,1.4l-4.1,9.6l-0.1,0.3
			c-0.2,0.5-0.4,0.8-0.5,0.8c-0.1,0-0.2-0.2-0.4-0.5l-0.3-0.5c-0.1-0.2-0.3-0.6-0.5-1.1l-2.3-5.1c-0.5-1.1-1.3-3-2.4-5.8
			c-1.2-2.9-2-4.9-2.6-6.2c-1.2-2.6-1.7-4.4-1.7-5.1c0-0.6,0.5-1.1,1.5-1.4c0.3-0.1,0.5-0.3,0.5-0.6c0-0.4-0.2-0.6-0.6-0.6
			c-0.2,0-0.7,0-1.5,0.1l-2,0l-2.9,0c-1,0-1.8,0-2.4-0.1c-0.3,0-0.5,0-0.6,0c-0.5,0-0.7,0.2-0.7,0.6c0,0.3,0.2,0.5,0.5,0.6l1,0.2
			c1,0.2,1.8,0.8,2.4,1.6c0.6,0.8,1.4,2.3,2.3,4.5l0.6,1.6l9.8,23.5c0.5,1.2,1,1.8,1.4,1.9c0.3,0,0.6-0.3,0.9-1l5.9-14.2l5.9,13.8
			c0.3,0.8,0.7,1.1,1,1.1c0.4,0,0.8-0.4,1.2-1.3l0.4-0.7l0.5-1.2l1.1-2.6l1.9-4.5l2.9-6.4c0.6-1.4,1.5-3.5,2.7-6.3
			c1.1-2.7,2-4.6,2.5-5.7l1.3-2.8c0.3-0.7,0.8-1.2,1.4-1.4c0.5-0.2,0.7-0.4,0.7-0.7C102.4,172.4,102.2,172.3,101.9,172.2
			L101.9,172.2z M106.6,172.2c-0.7,0-1.1,0.2-1.1,0.7c0,0.3,0.2,0.5,0.7,0.5c1.4,0,2.4,0.4,2.9,1.2c0.5,0.8,0.8,2.3,0.8,4.6v20.1
			l0,1.5c0,1.9-0.6,3-1.7,3.3l-0.9,0.3c-0.4,0.1-0.6,0.3-0.6,0.6c0,0.3,0.3,0.5,0.8,0.5c0.2,0,0.6-0.1,1.2-0.2
			c1.1-0.2,3.1-0.3,5.9-0.3c2,0,4.5,0.1,7.5,0.4c0.8,0.1,1.4,0.1,1.9,0.1c2.1,0,3.9-0.9,5.3-2.6c1.2-1.4,1.7-2.7,1.7-3.7
			c0-0.4-0.1-0.6-0.4-0.6c-0.2,0-0.3,0.2-0.5,0.4c-1.8,2.8-5.8,4.2-12,4.2c-2,0-3.2-0.2-3.7-0.5c-0.5-0.3-0.7-1.2-0.7-2.5v-8.7
			l0-0.8c0-0.5,0.1-0.8,0.4-1c0.3-0.2,0.8-0.2,1.6-0.2h5.3c1.4,0,2.3,0.2,2.9,0.6c0.6,0.4,1,1.1,1.1,2.2l0.1,0.7
			c0.1,0.3,0.3,0.5,0.6,0.5c0.3,0,0.5-0.2,0.5-0.6c0-0.1,0-0.4,0-0.7c-0.1-1-0.1-1.9-0.1-2.9c0-1.3,0.1-2.7,0.2-4.2
			c0-0.2,0-0.4,0-0.5c0-0.4-0.2-0.6-0.5-0.6c-0.3,0-0.5,0.2-0.6,0.6c-0.2,1-0.4,1.7-0.7,2c-0.3,0.3-0.8,0.5-1.7,0.7
			c-1,0.2-2.3,0.3-3.9,0.3H115c-0.7,0-1.1-0.1-1.2-0.2c-0.1-0.2-0.2-0.6-0.2-1.3v-9.6c0-0.8,0.1-1.4,0.4-1.6
			c0.3-0.3,0.9-0.4,1.9-0.4h3.7c2.5,0,4.1,0.1,5.1,0.4c0.9,0.2,1.5,0.7,1.8,1.4c0.2,0.5,0.3,0.9,0.3,1.4v0.6c0,0.5,0.2,0.7,0.5,0.7
			c0.3,0,0.4-0.1,0.5-0.4c0.1-0.2,0.2-0.8,0.2-1.7l0.1-1.4c0.1-1,0.1-1.7,0.2-1.9c0-0.2,0.1-0.4,0.1-0.5c0-0.5-0.3-0.7-0.8-0.7
			c-0.2,0-0.5,0-0.9,0.1c-0.2,0-0.8,0.1-1.7,0.1l-3.4,0.2c-1.5,0.1-3.2,0.1-5.1,0.1c-3.2,0-5.9-0.1-8.2-0.4
			C107.6,172.3,107,172.3,106.6,172.2L106.6,172.2z M320.5,172.2c-0.7,0-1.1,0.2-1.1,0.7c0,0.3,0.2,0.5,0.7,0.5
			c1.4,0,2.4,0.4,2.9,1.2c0.5,0.8,0.8,2.3,0.8,4.6v20.1l0,1.5c0,1.9-0.6,3-1.7,3.3l-0.9,0.3c-0.4,0.1-0.6,0.3-0.6,0.6
			c0,0.3,0.3,0.5,0.8,0.5c0.2,0,0.6-0.1,1.2-0.2c1.1-0.2,3.1-0.3,5.9-0.3c2,0,4.5,0.1,7.5,0.4c0.8,0.1,1.4,0.1,1.9,0.1
			c2.1,0,3.9-0.9,5.3-2.6c1.2-1.4,1.7-2.7,1.7-3.7c0-0.4-0.1-0.6-0.4-0.6c-0.2,0-0.3,0.2-0.5,0.4c-1.8,2.8-5.8,4.2-12,4.2
			c-2,0-3.2-0.2-3.7-0.5c-0.5-0.3-0.7-1.2-0.7-2.5v-8.7l0-0.8c0-0.5,0.1-0.8,0.4-1c0.3-0.2,0.8-0.2,1.6-0.2h5.2
			c1.4,0,2.3,0.2,2.9,0.6c0.6,0.4,1,1.1,1.1,2.2l0.1,0.7c0.1,0.3,0.3,0.5,0.6,0.5c0.3,0,0.5-0.2,0.5-0.6c0-0.1,0-0.4,0-0.7
			c-0.1-1-0.1-1.9-0.1-2.9c0-1.3,0.1-2.7,0.2-4.2c0-0.2,0-0.4,0-0.5c0-0.4-0.1-0.6-0.5-0.6c-0.3,0-0.5,0.2-0.6,0.6
			c-0.2,1-0.4,1.7-0.7,2c-0.3,0.3-0.8,0.5-1.7,0.7c-1,0.2-2.3,0.3-3.9,0.3h-3.7c-0.7,0-1.1-0.1-1.2-0.2c-0.1-0.2-0.2-0.6-0.2-1.3
			v-9.6c0-0.8,0.1-1.4,0.4-1.6c0.3-0.3,0.9-0.4,1.9-0.4h3.7c2.5,0,4.1,0.1,5.1,0.4c0.9,0.2,1.5,0.7,1.8,1.4c0.2,0.5,0.3,0.9,0.3,1.4
			v0.6c0,0.5,0.1,0.7,0.5,0.7c0.3,0,0.4-0.1,0.5-0.4c0.1-0.2,0.2-0.8,0.2-1.7l0.1-1.4c0.1-1,0.1-1.7,0.2-1.9c0-0.2,0.1-0.4,0.1-0.5
			c0-0.5-0.3-0.7-0.8-0.7c-0.2,0-0.5,0-0.9,0.1c-0.2,0-0.8,0.1-1.7,0.1l-3.4,0.2c-1.5,0.1-3.2,0.1-5.1,0.1c-3.2,0-5.9-0.1-8.2-0.4
			C321.4,172.3,320.9,172.3,320.5,172.2L320.5,172.2z M171.4,172.4c-0.5,0-0.8,0.2-0.8,0.5c0,0.2,0.2,0.4,0.6,0.5l1.1,0.2
			c1.7,0.3,2.6,1.6,2.6,3.7v21.2l0,1.1c0,1.5-0.2,2.6-0.6,3.3c-0.4,0.6-1.1,1.1-2.2,1.4c-0.4,0.1-0.6,0.3-0.6,0.6
			c0,0.3,0.2,0.4,0.6,0.4c0.3,0,0.8-0.1,1.3-0.1c1.3-0.2,2.9-0.3,4.9-0.3c1.7,0,3.3,0.1,4.8,0.2l2.6,0.2c0.7,0,1.3,0.1,1.8,0.1
			c3.1,0,5.3-0.9,6.6-2.6c1-1.3,1.5-2.4,1.5-3.4c0-0.3-0.1-0.5-0.4-0.5c-0.2,0-0.4,0.2-0.7,0.6c-0.6,1.2-2,2.1-4.2,2.8
			c-2.2,0.7-4.7,1-7.7,1c-2,0-3.2-0.2-3.6-0.5c-0.4-0.3-0.5-1.5-0.5-3.4l0-0.8V178c0-2.5,0.7-3.9,2.1-4.3l0.8-0.2
			c0.5-0.1,0.7-0.3,0.7-0.7c0-0.2-0.2-0.4-0.6-0.4c-0.1,0-0.4,0-1,0c-1.2,0.1-2.5,0.1-4,0.1c-1.3,0-2.6,0-3.6-0.1
			C172.3,172.5,171.8,172.4,171.4,172.4L171.4,172.4z M385.3,172.4c-0.5,0-0.8,0.2-0.8,0.5c0,0.2,0.2,0.4,0.6,0.5l1.1,0.2
			c1.7,0.3,2.6,1.6,2.6,3.7v21.2l0,1.1c0,1.5-0.2,2.6-0.6,3.3c-0.4,0.6-1.1,1.1-2.2,1.4c-0.4,0.1-0.6,0.3-0.6,0.6
			c0,0.3,0.2,0.4,0.6,0.4c0.3,0,0.8-0.1,1.3-0.1c1.3-0.2,2.9-0.3,4.9-0.3c1.7,0,3.3,0.1,4.8,0.2l2.6,0.2c0.7,0,1.3,0.1,1.8,0.1
			c3.1,0,5.3-0.9,6.6-2.6c1-1.3,1.5-2.4,1.5-3.4c0-0.3-0.1-0.5-0.4-0.5c-0.2,0-0.4,0.2-0.7,0.6c-0.6,1.2-2,2.1-4.2,2.8
			c-2.2,0.7-4.7,1-7.7,1c-2,0-3.2-0.2-3.6-0.5c-0.4-0.3-0.5-1.5-0.5-3.4l0-0.8V178c0-2.5,0.7-3.9,2.1-4.3l0.8-0.2
			c0.5-0.1,0.7-0.3,0.7-0.7c0-0.2-0.2-0.4-0.6-0.4c-0.1,0-0.4,0-1,0c-1.2,0.1-2.5,0.1-4,0.1c-1.3,0-2.6,0-3.6-0.1
			C386.1,172.5,385.6,172.4,385.3,172.4L385.3,172.4z M195.3,172.6c-0.5,0-0.9,0.1-1.1,0.4c-0.2,0.2-0.2,0.7-0.2,1.4
			c0,0.7-0.1,1.7-0.4,2.8c-0.2,0.9-0.3,1.5-0.3,1.8c0,0.4,0.1,0.6,0.4,0.6c0.3,0,0.5-0.3,0.6-0.9c0.3-1.4,0.8-2.4,1.3-2.9
			c0.6-0.5,1.5-0.8,2.8-0.8h6.3c0.6,0,1,0.1,1.1,0.2c0.2,0.2,0.3,0.5,0.3,1.1l0,0.6v23.5c0,1.3-0.2,2.3-0.6,2.8
			c-0.4,0.5-1.3,0.8-2.5,1c-0.5,0.1-0.8,0.2-0.8,0.5c0,0.3,0.2,0.5,0.7,0.5c0.2,0,0.7,0,1.6-0.1c0.5,0,1-0.1,1.7-0.1l1.9,0l1.7,0
			c1.1,0,1.8,0,2.1,0.1c0.6,0.1,1,0.1,1.2,0.1c0.4,0,0.7-0.2,0.7-0.5c0-0.3-0.3-0.5-0.8-0.5c-2-0.3-3-1.5-3.1-3.3l0-0.9v-23.3
			c0-0.7,0.1-1.2,0.3-1.4c0.2-0.2,0.6-0.3,1.3-0.3h6.7c1.3,0,2.2,0.2,2.7,0.5c0.5,0.3,0.8,1.1,1,2.2c0.1,0.5,0.3,0.8,0.6,0.7
			c0.3,0,0.5-0.3,0.5-0.8c0-0.2-0.1-0.6-0.1-1.2c-0.1-0.4-0.1-1.1-0.1-2c0-0.9-0.1-1.5-0.3-1.7c-0.2-0.2-0.7-0.3-1.6-0.3
			L195.3,172.6z M409.2,172.6c-0.5,0-0.9,0.1-1.1,0.4c-0.2,0.2-0.2,0.7-0.2,1.4c0,0.7-0.1,1.7-0.4,2.8c-0.2,0.9-0.3,1.5-0.3,1.8
			c0,0.4,0.1,0.6,0.4,0.6c0.3,0,0.5-0.3,0.6-0.9c0.3-1.4,0.8-2.4,1.3-2.9c0.6-0.5,1.5-0.8,2.8-0.8h6.3c0.6,0,1,0.1,1.1,0.2
			c0.2,0.2,0.3,0.5,0.3,1.1l0,0.6v23.5c0,1.3-0.2,2.3-0.6,2.8c-0.4,0.5-1.3,0.8-2.5,1c-0.5,0.1-0.8,0.2-0.8,0.5
			c0,0.3,0.2,0.5,0.7,0.5c0.2,0,0.7,0,1.6-0.1c0.5,0,1-0.1,1.7-0.1l1.9,0l1.7,0c1.1,0,1.8,0,2.1,0.1c0.6,0.1,1,0.1,1.2,0.1
			c0.4,0,0.7-0.2,0.7-0.5c0-0.3-0.3-0.5-0.8-0.5c-2-0.3-3-1.5-3.1-3.3l0-0.9v-23.3c0-0.7,0.1-1.2,0.3-1.4c0.2-0.2,0.6-0.3,1.3-0.3
			h6.7c1.3,0,2.2,0.2,2.7,0.5c0.5,0.3,0.8,1.1,1,2.2c0.1,0.5,0.3,0.8,0.6,0.7c0.3,0,0.5-0.3,0.5-0.8c0-0.2-0.1-0.6-0.1-1.2
			c-0.1-0.4-0.1-1.1-0.1-2c0-0.9-0.1-1.5-0.3-1.7c-0.2-0.2-0.7-0.3-1.6-0.3L409.2,172.6z M149.4,178.1c0.2,0,0.4,0.3,0.6,0.8
			l0.2,0.5l3.7,9.4l0.1,0.4c0.1,0.3,0.1,0.4,0.1,0.5c0,0.4-0.4,0.6-1.2,0.6h-7.2l-0.6,0c-0.7,0-1.1-0.2-1.1-0.6
			c0-0.1,0.1-0.4,0.3-0.9l4.6-10.3C149.2,178.3,149.3,178.1,149.4,178.1L149.4,178.1z M363.3,178.1c0.2,0,0.4,0.3,0.6,0.8l0.2,0.5
			l3.7,9.4l0.1,0.4c0.1,0.3,0.1,0.4,0.1,0.5c0,0.4-0.4,0.6-1.2,0.6h-7.2l-0.6,0c-0.7,0-1.1-0.2-1.1-0.6c0-0.1,0.1-0.4,0.3-0.9
			l4.6-10.3C363,178.3,363.1,178.1,363.3,178.1L363.3,178.1z"/>
	</g>
</g>
</svg>
