<?xml version="1.0" encoding="utf-8"?>
<!-- Generator: Adobe Illustrator 21.0.0, SVG Export Plug-In . SVG Version: 6.00 Build 0)  -->
<svg version="1.1"
	 id="svg8" inkscape:version="0.92.3 (2405546, 2018-03-11)" sodipodi:docname="HRnet_favicon.svg" xmlns:cc="http://creativecommons.org/ns#" xmlns:dc="http://purl.org/dc/elements/1.1/" xmlns:inkscape="http://www.inkscape.org/namespaces/inkscape" xmlns:rdf="http://www.w3.org/1999/02/22-rdf-syntax-ns#" xmlns:sodipodi="http://sodipodi.sourceforge.net/DTD/sodipodi-0.dtd" xmlns:svg="http://www.w3.org/2000/svg"
	 xmlns="http://www.w3.org/2000/svg" xmlns:xlink="http://www.w3.org/1999/xlink" x="0px" y="0px" viewBox="0 0 500 500"
	 style="enable-background:new 0 0 500 500;" xml:space="preserve">
<style type="text/css">
	.st0{fill:#005513;}
</style>
<sodipodi:namedview  bordercolor="#666666" borderopacity="1.0" id="base" inkscape:current-layer="layer1" inkscape:cx="433.05486" inkscape:cy="303.60825" inkscape:document-units="px" inkscape:pageopacity="0.0" inkscape:pageshadow="2" inkscape:showpageshadow="false" inkscape:window-height="1001" inkscape:window-maximized="0" inkscape:window-width="960" inkscape:window-x="951" inkscape:window-y="-9" inkscape:zoom="0.70710678" pagecolor="#ffffff" showborder="true" showgrid="false" units="px">
	</sodipodi:namedview>
<g id="layer1" transform="translate(0,-164.70832)" inkscape:groupmode="layer" inkscape:label="Calque 1">
	<g id="g826" transform="translate(-39.073673,126.05051)">
		<path id="path840" inkscape:connector-curvature="0" class="st0" d="M279.6,498.9c-9.7-4.1-15.3-13.1-15.3-24.6
			c0-22.1,24.4-33.1,41.4-18.7c17.4,14.6,8.1,43-14.5,44.4C287,500.3,281.7,499.8,279.6,498.9z M201.2,482.5
			c-5.1-11.2-4.4-19.1,2.6-33.4c4.4-8.9,9.1-15.4,17.6-24.1c12.2-12.5,17.3-14.8,19-8.4c2.1,7.7,0.9,29.5-2.2,40.9
			c-4.7,17.4-8.4,23.1-18.2,28.1C208,491.8,205.2,491.3,201.2,482.5L201.2,482.5z M357.8,485.7c-7.4-3.6-8.7-5.1-12.5-13.5
			c-6.1-13.6-9.7-32.6-8.4-45.7c0.5-5.9,1.4-11.3,1.8-12c2.3-3.7,7.9-0.6,18.3,9.9c8.3,8.4,12.8,14.7,17.7,24.7
			c7.7,15.6,8.2,21.4,2.7,32.5C372.9,490.7,369.5,491.4,357.8,485.7z M243.6,464.8c-0.4-1.1,0.1-4.1,1.1-6.5
			c1.2-2.9,1.9-12.7,2-27.5c0.1-12.7,0.6-23.8,1.3-24.8c1.6-2.6,21.6-8.8,24.6-7.6c3.4,1.3,3.2,9.9-0.5,24.7
			c-3.6,14-10.4,27.5-18.8,37C247,467.1,244.9,468.2,243.6,464.8L243.6,464.8z M329.8,465.2c-5.1-3-18-24.6-21.7-36.4
			c-4.8-15.2-5.7-27.7-2.3-29.9c2.8-1.8,23,3.9,25.9,7.4c1.2,1.4,1.2,5.4,0,14.1c-1.2,8.4-1.2,15.3-0.1,22.7
			c0.9,5.9,2,13.6,2.5,17.2C335.1,467,334.3,467.9,329.8,465.2L329.8,465.2z M152.5,445.4c-13.4-4.1-20.4-13.8-19.3-27.1
			c0.7-8.9,3.7-14.2,11-19.6c3.2-2.4,6.5-3.2,13.9-3.2c10.9,0,15.7,2.6,21.9,11.6c4.8,6.9,4.2,21.2-1,28.3
			C172.9,443.8,161.4,448.1,152.5,445.4L152.5,445.4z M414.4,445.3c-7.4-1.7-12.7-6-16.6-13.8c-4.4-8.6-4.3-14.6,0.1-23.1
			c9.6-18.3,36.3-18,45.2,0.6c3.8,7.9,4,13,0.9,20.6C438.7,442.2,427.4,448.2,414.4,445.3L414.4,445.3z M194.5,434.2
			c1.5-17.9,9.4-37.3,20.1-49.8c7.9-9.2,10.2-8.6,16.7,4.4c3,6,5.5,11.8,5.5,12.9c0,1.1-4,5.1-9,8.9c-9.5,7.3-18.5,17.4-25.2,28.1
			c-2.2,3.6-5.2,6.5-6.6,6.5C193.9,445.4,193.7,443.9,194.5,434.2L194.5,434.2z M376.1,439c-4.4-7.9-21.6-26.3-28.5-30.6
			c-6.5-4.1-6.6-7-0.2-19.8c6.6-13.3,9.5-13.7,17.7-2.8c11.2,14.9,20,38.7,20.1,54.5C385.2,447.7,380.5,447,376.1,439L376.1,439z
			 M237.5,388.2c-3-6.1-6.2-11.8-6.9-12.6c-4.3-4.4,3-11.4,20-19.1c10.7-4.9,13.4-4.3,16.9,3.5c4.2,9.6,8.1,27.2,6.3,29
			c-1.4,1.4-26.7,10.4-29.3,10.4C243.7,399.3,240.6,394.3,237.5,388.2z M318.7,394.8c-6.7-2.3-12.9-5.3-13.7-6.7
			c-1.1-1.8-0.8-5.3,1-12.4c3.9-14.8,7.5-21.5,11.8-22.2c4.3-0.6,24.4,9.2,29.1,14.3l3.3,3.5l-7.4,13.6c-4,7.5-8.4,13.7-9.6,13.8
			C331.9,398.8,325.4,397,318.7,394.8L318.7,394.8z M282,387.7c-1.3-1.3-2.4-4.1-2.4-6.2c0-2.1-1.8-9.3-4-15.9
			c-2.2-6.7-3.6-13.2-3.1-14.5c0.7-1.9,3.8-2.4,15.9-2.3c8.2,0,16,0.7,17.2,1.4c1.9,1.2,1.6,3.2-1.8,13.4
			c-2.2,6.6-4.5,14.4-5.1,17.4c-0.6,3-1.7,6.2-2.6,7.3C293.9,390.9,284.9,390.6,282,387.7z M132.9,381.9c0-1.1,4-4.6,8.9-7.6
			c8.5-5.3,29.3-25.6,29.3-28.6c0-0.8,1.4-2.2,3.1-3.1c2.5-1.3,4.9-0.9,11.8,2.3c10.2,4.7,14.1,7.9,14.1,11.6
			c0,5.6-21.4,19-38.8,24.3C149.1,384.5,132.9,385.2,132.9,381.9L132.9,381.9z M418,381.2c-18.8-5.5-42.2-21.2-40-26.9
			c0.6-1.5,6.3-5.2,12.8-8.3l11.8-5.6l5.4,6.8c8.7,10.9,19,20.7,28.5,27c4.9,3.2,8.9,6.6,8.9,7.4C445.6,384.3,427.7,384,418,381.2z
			 M97.7,377.5c-4.9-2-8.6-4.6-8.9-6.1c-0.3-1.5,1.4-6.8,3.7-12c3.6-7.9,5.2-9.9,11.2-12.9c14.8-7.4,22.9-9.2,41.8-9.3
			c25.4-0.1,26.1,2.2,7.2,20.7c-11.7,11.4-29.5,21.4-39.9,22.4C108.1,380.8,103.5,379.9,97.7,377.5L97.7,377.5z M449.2,374.6
			c-9.7-4.8-15.7-9.3-24.6-18.2c-6.5-6.5-11.9-13-11.9-14.4c0-9.2,42.7-6.4,61.7,4.1c4.9,2.7,7.4,5.7,11.3,13.3
			c5.9,11.7,5.1,14.2-5.8,18.7C469.2,382.3,463.5,381.7,449.2,374.6L449.2,374.6z M217.6,359.4l-4.5-4.7l3.5-5.7
			c1.9-3.1,5.9-10.7,9-16.8c4.1-8.4,6.2-11.1,8.6-11.1c4.3,0,22.5,18.4,22.5,22.8c0,2.6-1.9,4.2-8.4,7.1c-4.6,2-11.4,5.8-15.2,8.4
			c-3.7,2.6-7.8,4.7-8.9,4.7C223.1,364.1,220.1,362,217.6,359.4L217.6,359.4z M346.7,360.3c-3-2.1-9.9-6-15.3-8.8s-10-6.2-10.2-7.5
			c-0.7-3.6,19.4-23.1,23.1-22.6c2,0.3,4.9,4.1,8.6,11.2c3.1,5.9,7.1,13.2,9,16.3l3.4,5.6l-4,4.8C356.5,365,353.9,365.2,346.7,360.3
			L346.7,360.3z M193.3,342.6c-5.9-3.2-11.5-6.5-12.5-7.4c-1.3-1.2-0.6-5.2,2.8-15.8c2.5-7.8,5.3-14.7,6.1-15.2
			c4.2-2.6,32.5,6.4,35.1,11.1c1.2,2.3,0.4,5.4-3.8,14c-6.4,13.4-11,19.5-14.4,19.3C205.1,348.4,199.1,345.7,193.3,342.6
			L193.3,342.6z M364,341c-6.6-10.1-11.5-22.2-10.4-25.2c1.7-4.5,27.9-13.4,34.8-11.9c1.6,0.3,3.7,4.7,5.9,12.4
			c4.9,16.7,4.8,18.9-0.7,21.6c-2.5,1.3-7.9,4.2-12,6.6c-4.1,2.4-8.5,4.3-10,4.3C370.2,348.7,366.8,345.3,364,341L364,341z
			 M259.4,335.3c-3.4-4.4-9.7-11-14-14.5c-4.3-3.5-8.4-6.9-9.1-7.5c-0.7-0.6-1.3-11.4-1.3-24v-22.9l15.8-15.9l15.8-15.9l23.5-0.1
			l23.5-0.1l5.4,7.4c3,4.1,9.6,10.9,14.8,15.2l9.3,7.8l0.1,23.1l0.1,23.1l-12.5,12.3c-6.9,6.7-13.5,13.9-14.8,15.9
			c-2.3,3.5-2.9,3.6-26.3,3.8l-23.9,0.2L259.4,335.3L259.4,335.3z M112.2,333.3c-1.6-2.6,11.5-13.5,24.1-19.8
			c12.3-6.2,31.4-11.4,38.9-10.5c3.2,0.4,4.5,1.4,4.9,4c0.7,4.8-5.6,23-8.4,24.6c-1.3,0.7-5.2,0.8-8.7,0.1c-9.9-1.9-25.2-1.5-36.9,1
			C113.2,335.4,113.4,335.4,112.2,333.3L112.2,333.3z M452.4,332.6c-9.7-2.2-27-2.7-36.2-0.9c-3.5,0.7-7.4,0.6-8.8-0.2
			c-4.2-2.4-10.9-21.9-9-26.7c1.9-5,29,0.3,45,8.8c15.7,8.4,28.4,21.7,20.1,21C462,334.6,457,333.6,452.4,332.6L452.4,332.6z
			 M93.7,312.1c-11.6-5.3-18-18-14.6-29.2c3.6-11.9,13.7-20,25.1-20c8.2,0,18,6.1,22,13.7c7.5,14.2,2.4,28.6-12.5,35.5
			C106,315.7,101.6,315.7,93.7,312.1L93.7,312.1z M467.4,313.5c-11.4-3.6-18-13-18-25.3c0-8.9,3-14.8,10.2-20.3
			c4.7-3.6,7.1-4.3,15-4.3c8,0,10.3,0.7,15.2,4.4c13.7,10.5,13.4,32.4-0.5,41.7C483,313.8,473.5,315.5,467.4,313.5L467.4,313.5z
			 M351.2,305.6c-2.9-1.8-3.7-28.8-0.9-32.5c1.9-2.6,2.7-2.5,16.5,1.8c8,2.5,16.4,5,18.8,5.5c4.1,0.8,4.3,1.3,3.8,8.1
			c-0.4,6.2-1,7.4-4.3,8.3c-2.1,0.6-10.1,3.1-17.9,5.5C359,305,352.4,306.3,351.2,305.6L351.2,305.6z M218.5,304.4
			c-2-1.2-11.7-3.9-24.9-6.9c-4.1-0.9-4.3-1.3-3.8-8.8l0.5-7.9l11.5-2.7c6.3-1.5,14.1-3.8,17.3-5.2c4.3-1.8,6.4-2,7.9-0.8
			c2.7,2.2,4.2,17.4,2.7,26.1c-1,5.8-1.8,7-5,7.3C222.5,305.6,219.7,305.1,218.5,304.4L218.5,304.4z M164.6,273.5
			c-17.8-3-38.3-13-48.4-23.5c-4.4-4.6-4.8-5.6-2.7-6.4c1.4-0.5,6.1,0,10.6,1.1c7,1.8,27.7,2.2,43.2,0.9c4.1-0.3,5,0.4,7.9,6.5
			c4.5,9.3,6.1,19.8,3.3,21.6C176.1,275.2,174.7,275.2,164.6,273.5L164.6,273.5z M399,272.9c-1.6-2-1.4-4.3,1.3-13
			c3.7-12.2,6.7-16.1,11.6-14.8c8.1,2,25.2,2.6,33.7,1.1c5-0.9,11.8-2.1,14.9-2.6c19.4-3.5-12.3,21.1-35.6,27.5
			C410.7,275,401.3,275.7,399,272.9z M188.3,271.7c-0.8-1.1-2-4.3-2.7-7.3s-2.4-8.5-3.9-12.4c-1.5-3.9-2.2-7.8-1.6-8.9
			c1.4-2.2,24.1-14,27-14c4.7,0,20.1,27.7,18.2,32.6c-1.5,4-22.5,11.7-32.2,11.8C191.3,273.6,189.1,272.7,188.3,271.7L188.3,271.7z
			 M367.7,269.3c-6.6-2.3-12.8-5.3-13.7-6.7c-3-4.7,11.7-33.5,17.1-33.5c3.9,0,27.7,12.8,27.7,14.9c0,1.9-5.3,19.9-7.7,26.1
			C389.3,274.8,383,274.6,367.7,269.3L367.7,269.3z M228.3,249.6c-1.5-3.9-5.3-11.2-8.5-16.2s-5.8-9.6-5.8-10.3
			c0-2.9,6.6-9.4,9.5-9.4c1.8,0,6.4,2,10.2,4.5c3.9,2.5,10.5,6.1,14.7,8.1c4.2,2,8.1,4.2,8.7,5c1.7,2.3-3.4,9.7-12.3,17.9
			C234.4,258.7,231.8,258.8,228.3,249.6z M331.4,246.2c-5.7-5.8-10.4-11.6-10.4-13.1c0-1.7,3-3.9,8.5-6.4c4.7-2.1,11.6-5.9,15.4-8.4
			c3.8-2.6,8.1-4.6,9.7-4.6c3.5,0,11.2,8.8,9.7,11.2c-0.6,1-3.2,5.2-5.9,9.5c-2.7,4.2-6.3,10.9-8,15c-2,4.6-4.2,7.3-5.8,7.3
			C343,256.7,337.1,252,331.4,246.2L331.4,246.2z M127.5,239.2c-13.6-3.2-25.8-8.1-29.5-12c-3.4-3.7-9.5-16.8-9.5-20.5
			c0-3.1,16.4-10.4,23-10.3c8.8,0.2,27.9,10.6,39.8,21.7c12.6,11.7,16.3,17.5,12.9,20.3C160.8,241.1,138.1,241.7,127.5,239.2
			L127.5,239.2z M418.8,240.1c-3-0.6-5.5-2.1-5.8-3.4c-1.3-6.8,21.4-27.4,39.4-35.6c12.1-5.6,18.2-5.8,28.7-1.2
			c9.5,4.2,10.1,7,4.3,19.6c-4.1,8.8-10.5,13.1-26.9,18C449.1,240.2,427,241.7,418.8,240.1L418.8,240.1z M168.7,227.9
			c-8.1-10.1-16.6-18-27.1-25.2c-4.9-3.3-8.6-6.9-8.3-7.9c1-3,9.8-2.9,22.4,0.3c15,3.8,26.9,9.4,36.9,17.3
			c10.2,8.1,9.8,11.2-2.4,17.8C177.8,236.9,175.6,236.7,168.7,227.9L168.7,227.9z M388,230.1c-13.3-7.1-13.4-9.5-0.6-18.7
			c12.8-9.2,27.4-15.3,42.5-17.8c10.5-1.7,12.2-1.7,14.3,0.5c2.2,2.2,1.7,2.9-6.2,8c-10.9,7-20.9,16.2-27.8,25.7
			C403.6,236.8,401.1,237.1,388,230.1L388,230.1z M274.5,228c-3.2-0.8-3.1-2.4,2.1-20.4c1.8-6.3,3.8-13.2,4.4-15.3
			c0.9-3.4,1.8-3.8,8.6-3.8h7.6l2.4,10.7c1.3,5.9,3.7,14.1,5.3,18.2c2.8,7.3,2.8,7.5,0,9.6C302.1,229,281.2,229.7,274.5,228
			L274.5,228z M246.8,219.1c-5.9-3-12.4-7.1-14.5-9.2l-3.8-3.8l6.6-12.7c3.7-7,7.2-13.3,7.9-14.1c0.8-0.9,5.3-0.2,11.6,1.8
			c5.7,1.8,11.8,3.7,13.6,4.2c6.2,1.7,6.9,4.2,4.4,15.6c-2.9,12.7-8.2,22.6-12.3,23.2C258.8,224.4,252.7,222.1,246.8,219.1
			L246.8,219.1z M311,216.4c-4.5-10-8.1-26.7-6.1-28.5c2.1-1.8,27.8-9.9,29.5-9.2c0.8,0.3,4.6,6.7,8.5,14.2c6.7,13,7,13.8,4.5,16.5
			c-3.3,3.7-25.9,15.1-29.8,15.1C315.5,224.5,313.6,222.1,311,216.4L311,216.4z M215,193.4c-12-14.9-19-31.9-20.5-49.6
			c-1.2-14,0.8-15.5,7.4-5.7c2.7,4,11.7,14.1,20.1,22.3l15.2,15l-2.6,6.5c-3.6,9.1-9.6,18-12.2,18C221.2,200,217.9,197,215,193.4
			L215,193.4z M352.7,197.3c-3.6-4-10.4-18.3-10.4-21.7c0-1.8,2.9-5.2,7.4-8.4c9.4-7,18.6-16.9,25.6-27.8c5.9-9.2,8.8-10.1,9.5-2.8
			c1.3,13.4-8.4,40.4-19.8,55.3C358.3,200.6,356.3,201.4,352.7,197.3z M147.2,180.2c-9.7-4.4-13.6-11.1-13.6-23.2
			c0-12,3.9-18.7,13.6-23.2c8.3-3.8,14.1-3.6,22.4,0.5c9.6,4.9,13.7,11.7,13.7,22.6c0,11-4.1,17.8-13.7,22.6
			C161.4,183.8,155.5,183.9,147.2,180.2L147.2,180.2z M410.4,180.9c-6.6-2.9-12.4-9.9-14.6-17.3c-5.3-17.9,11.2-35.5,30-32
			c7.5,1.4,17.1,10.4,19.1,18.1C450.5,170.6,429.6,189.5,410.4,180.9z M262.8,177.8c-3.8-1.1-9.1-3.1-11.9-4.5l-5-2.6l0.9-17.2
			c0.9-15.6,0.1-25-3.3-38.3c-0.9-3.5-0.6-4.2,2-4.2c4,0,14.1,13.2,20.1,26.1c8.6,18.5,12.1,40,6.9,42c-1.3,0.5-2.5,0.9-2.7,0.8
			C269.8,179.8,266.6,178.9,262.8,177.8L262.8,177.8z M304.2,177.1c-2.8-5.3,2.1-27.7,9.1-41.6c5.6-11,16.2-24.5,19.3-24.5
			c2.6,0,2.7-1.1-1,23c-1,6.7-1,14.3,0.1,23c1.9,15.2,1.9,15.2-13.6,20C306.2,180.7,306.1,180.7,304.2,177.1L304.2,177.1z
			 M221.7,152.8c-8.5-8.7-13.3-15.2-17.7-24.2c-7.1-14.4-7.8-22.2-2.7-33.4c2.8-6.2,3.9-7.3,7.7-7.3c2.4,0,7.9,1.8,12.2,3.9
			c6.6,3.3,8.4,5.2,11.8,12.4c5.7,12.1,8.5,25.3,8.5,40.9c0,14.2-1.5,19.5-5.6,19.5C234.4,164.7,228.1,159.3,221.7,152.8z
			 M338.6,163.3c-0.5-0.7-1.3-6.1-1.8-12c-1.2-13.3,2.4-32.6,8.6-46.1c4-8.7,5.3-10,12.5-13.4c12.7-5.9,15.5-5.3,19.7,4.2
			c5,11.4,4.4,17.2-3.3,32.8C364.6,148.5,342.6,169.8,338.6,163.3L338.6,163.3z M276.6,124.7c-10-5.9-14.4-16.3-11.9-28.6
			c1.4-6.9,8.1-15,14.5-17.4c6.9-2.6,18-1.6,23.4,2.1c8.8,6,11.5,11,11.5,21.7c0,8.1-0.6,10.4-4.3,15.2c-2.4,3.1-6.3,6.7-8.7,7.9
			C294.7,128.9,283,128.4,276.6,124.7L276.6,124.7z"/>
	</g>
</g>
</svg>
